<svg width="71" height="50" fill="none" xmlns="http://www.w3.org/2000/svg"><path d="M1.462 28.613l19.424 19.891a4.916 4.916 0 007.063 0c1.95-1.994 1.95-5.237 0-7.231L12.057 24.997 27.95 8.73c1.95-1.994 1.95-5.237 0-7.231a4.909 4.909 0 00-7.063 0L1.462 21.38c-1.95 2.002-1.95 5.238 0 7.232z" fill="#EFD9C4"/><path d="M21.531 28.613l20.071 19.891a5.2 5.2 0 007.299 0 5.082 5.082 0 000-7.231L32.478 24.997 48.901 8.73a5.082 5.082 0 000-7.231A5.16 5.16 0 0045.25 0a5.159 5.159 0 00-3.649 1.498L21.532 21.38a5.08 5.08 0 000 7.232z" fill="#EFD9C4"/><path d="M41.531 28.613l20.07 19.891a5.2 5.2 0 007.3 0 5.08 5.08 0 000-7.231L52.477 24.997 68.9 8.73a5.08 5.08 0 000-7.231A5.16 5.16 0 0065.25 0a5.159 5.159 0 00-3.648 1.498L41.532 21.38a5.08 5.08 0 000 7.232z" fill="#EFD9C4"/></svg>