<svg width="60" height="68" fill="none" xmlns="http://www.w3.org/2000/svg"><path fill-rule="evenodd" clip-rule="evenodd" d="M58.872 43.474l-.028.73c-.056.694-.2 2.798-.424 3.487l-.048.237c-.08.774-.588 1.75-.52 2.365-.051.224-.21.21-.268.42a19.37 19.37 0 01-.797 1.88c-.395.576-.318.996-.707 1.535-.104.173-.21.344-.323.51-.173.273-.363.533-.548.795-.386.678-1.279 1.332-1.46 1.935-1.13 1.034-2.393 2.213-3.468 3.065-.428.4-1.329.627-1.498 1.08-.63.007-1.001.611-1.476.621-.406.3-1.253.382-1.395.787-.33.229-.45-.097-.569.234-1.315.58-2.952.975-3.974 1.305-.303.273-.736.092-1.314.325l.033.145c-.562.127-1.126.248-1.693.352-1.644.36-2.508.58-4.402.608-.534.05-1.065.09-1.602.122-.45.077-1.094-.093-1.356.206-.345-.125-.612-.193-1.119-.003-.693-.516-1.854.097-2.464-.311-.388.069-1.03-.333-1.252.015l-.122-.017c-.115-.398-.843-.192-1.196-.37-.285-.055-.416.216-.763.018.03-.247-.26-.212-.447-.273-.68.054-.699-.458-1.107-.636l-.046.163c-.434-.062-.61-.169-.758-.047l-.118-.036c-.391-.253-.573.156-.764.545-.282.006-.586.051-.906-.299-.944-.27-1.443-.51-2.375-.954-.362-.07-.771-.698-1.088-.423l-.222-.133c-.29-.185-.581-.367-.864-.563-.216-.216-.423-.255-.63-.219l-.106-.076c-.535-.234-1.016-1.077-1.545-.98-1.16-1.159-2.244-1.723-3.32-3.139l-.15.122c-.32-.206-.442-.976-.873-.828.027-.508-.754-1.067-.96-1.431a26.086 26.086 0 01-.789-1.375l-.173.097-.063-.118c.4-.453-.526-.397-.472-.95-.235-.195-.127-.897-.567-.76-.28-.592-.42-1.337-.866-1.663l-.043-.126a20.31 20.31 0 01-.287-.886c-.322-.559-.158-1.6-.719-1.869-.084-.388-.173-.777-.242-1.168.005-.465-.21-.712-.388-1.005.276-.051.214-.408-.059-.394.053-.246-.048-1.092-.156-1.312-.02-.078-.048-.152-.228-.105-.038-.247.142-.299.417-.183-.018-.307-.401-.345-.276-.762l-.217.02-.01-.131c.252-.046.226-.228.198-.413-.17-.479.24-1.316-.266-1.561.004-1.082-.052-1.337-.17-2.225l.005-.13c.119-.446-.04-.733-.153-1.052.176-.022.267-.098.243-.25-.049-.292.045-.448.106-.76.062-.297.079-.555-.154-.683a17.595 17.595 0 011.051-3.685c.149-.225-.117-.375.013-.596.364-.56.665-.719.672-1.38l.066-.12c.177-.324.361-.643.55-.954l.074-.116c.118-.47.93-.907.643-1.365l.24-.33.493-.647c.535-.573 1.938-2.415 2.598-2.863l.191-.181c.511-.681 1.675-1.146 1.83-1.884.162-.19.379-.005.544-.17a35.882 35.882 0 011.769-1.31c.059-.026.107-.054.156-.082l.007.25c.001.136-.01-.367-.005-.096l.004.16-.004-.012.012.314c-.002-.021-.007-.129 0 .072v-.003c.006.245.01.197.02.323-.002.014-.005-.004 0 .073.004.026.006.072.009.121.032-.034.061-.07.093-.103l-.062-.488-.003-.006-.01-.078.002.004-.038-.331a20.759 20.759 0 00-.016-.204c.547-.31.633-.796 1.226-1.073l.55-.339.89-.52c.648-.516 1.853-.72 2.184-1.36 1.534-.566 3.148-1.413 4.472-1.99.543-.295 1.549-.23 1.818-.697.656.224 1.231-.355 1.657-.19.456-.205 1.369-.071 1.575-.477.38-.162.448.22.625-.107 1.2-.24 2.593-.326 3.668-.399.017.07.273.11.724.134l.356.035c.575.128.84.042 1.543.215.904.148 1.406.265 2.334.526.318.072.892.331 1.033.302l.226.08c.297.114.598.222.891.347.253.115.425.172.563.2l.11.049c.26.097.578.266.872.416.009.029.017.055.037.087-.113.442-.398.484-.353.876-.25.079-.242.362-.176.435l-.028.073-.234.58-.348.868c-.012.047-.018.091.088.12l-.496 1.222-.118.286-.088.213-.146.358c.21.258-.272.215-.063.473-.218.316-.159.325-.296.709l-.091.21c-.213.255-.1.652-.299.704-.05.315-.152.62-.281.944l-.218.501-.216.465c.007.526-.259.862-.48 1.304-.213.248-.012.435-.194.678l-.033.07c-.227.483-.155.665-.468 1.24l-.035.069c-.018.359-.251.427-.274.822-.055-.028-.137 0-.034.07l-.444.913c.199.213-.255.3-.076.4l-.034.071c-.376.84-.62 1.656-.861 2.472l-.276.568-.24.498c-.124.697-.493 1.054-.495 1.702l-.206.429c-.053-.023-.106-.041-.118.027.12.078-.004.214-.05.332l-.034.07c-.05.372-.257.782-.457 1.194l-.134.289c-.08.17.043.282-.118.474l-.167.362c-.003.127-.263.329-.083.403-.339.49-.328 1.17-.54 1.422-.003.126-.256.335-.08.403-.311.44-.383 1.169-.677 1.803-.036.222-.338.544-.198.701l-.21.521-.089.224c-.105.667-.227.96-.484 1.713-.055.32-.029.254-.191.529.014.306-.186.715-.303 1.092-.02.093-.085.212-.009.255-.177.153-.132.631-.325.997l-.025.075c-.003.15-.22.426-.074.489l-.167.562-.001-.002c-.027-.054-.054-.101-.082-.153a3.694 3.694 0 00-.104-.19 1.216 1.216 0 00-.187-.251l-.036-.07c-.227-.443-.372-.631-.53-.9l-.114-.21c-.15-.266-.24-.438-.313-.47-.246-.438-.414-.766-.587-.95-.5-.82-1.012-1.515-1.524-2.33-.161-.314-.325-.496-.487-.724l-.041-.067-.326-.54c-.25-.322-.37-.564-.737-1.122-.203-.28-.42-.781-.614-.919.157.248-.09-.23 0 0l-.29-.469c-.105-.3-1.104-.753-.198-.354l-.568-.883c-.572-.197-4.432-7.322-4.9-7.767.242.743 3.792 8.291 4.012 9.044.156.282.312.55.51.884.149.276.357.754.517.974.29.554 1.658 1.875 1.886 2.251l-1.117-.88c.122.297.357.75.582 1.025.166.345.344.49.505.885.188.368.4-.034.601.196.169.267.282 1.512.467 1.626l.168.351c.087.187-.04-1.037-.065-.915l.345 1.384c.042.093-.054.104-.03.187.047-.024.083.03.128.025.126.465.543 1.031.797 1.509.087.111.116.444.235.404l.323.783.056.142c.163.113.242.51.358.767.015.01.027.033.04.049l.07.046c.146-.128.48.501.693.505.135.001.662.083.814.163.339.177.14-.399.472-.21.012-.013.023-.03.038-.038a.344.344 0 010-.131c-.25.075-.03-.044-.059-.149-.142.063-.378.687-.45.528l.214-.613c.048.085.11.041.149-.015.056.016.052.423.108.417l.008-.243c.031.073.095.034.149.035.012.064-.03.095-.001.17.075-.017.15-.025.178.11.12-.017.114.652.091.547.053-.045.04-.892.07-.945l.018-.006.03.076a.28.28 0 01.092.095s-.002 0-.002.002c.005.002.005.008.008.01.013.02.023.045.035.068.008.06-.006.134.018.183.005.122.039.083.064.007.028.076.056.152.084.223l.069.18.395-1.032c.02-.134.031-.13.099-.292l-.197.824c.035-.178-.016-.306.098-.532l.099-.292c.171-.592.34-1.367.608-1.907.007-.06.052-.142-.013-.167l.254-.648c.05-.296.142-.61.31-.956l.212-.5.092-.211c-.065-.206.177-.54.273-.809.23-.381.142-.64.379-1.02l.099-.21.232-.491c-.1-.24.355-.667.257-.906.219-.189.229-.49.45-.907l.071-.14c.006-.237.157-.518.313-.8-.052-.044-.153-.074-.12-.142.319-.062.329-.764.51-.795.074-.136.263.018.306-.198l-.24-.116.11-.208c.152-.433.466-1.227.81-1.692l-.083-.041.189-.345c.018-.144.323-.352.143-.454.176-.373.314-.361.38-.686.019-.044.032-.087-.047-.112.053-.085.162-.04.2-.162-.069-.147.082-.34.183-.523l.038-.068c.036-.24.04-.252.231-.412.032-.087.125-.185.03-.25.183-.361.491-.744.491-1.072.085-.317.121-.243.312-.547-.074-.153.08-.345.182-.527l.156-.274c.258-.31.218-.574.378-.87.196-.363.195-.696.491-1.077l.078-.137c.043-.11.178-.236.06-.325l.39-.687.078-.138c-.102-.349.356-.399.253-.67l.038-.07c.297-.086.055-.64.403-.948.171-.321.42-.655.398-.951l.037-.07c.167-.26.285-.512.277-.747l.039-.07c.436-.034.073-.733.56-.8l-.105-.05.218-.419.22-.423c.241-.27-.038-.582.401-.523-.155-.339.023-.323.068-.666.112.048.203-.063.072-.142l.495-.998-.113-.049c.054-.248.328-.165.36-.45-.006-.155.341-.363.093-.478l.277-.571c.119-.464.327-.61.55-1.144.018-.296.07-.182.087-.476.19.09.407-.361.205-.43.265-.145.078-.339.307-.643l.17-.355c.037-.062.053-.12.082-.18.278.197.647.576.802.566.228.29.913.76 1.19 1.015.357.323.709.65 1.05.99l.04-.042.084.083.005.007c.011.09.079.158.164.224l.035.047c.421.5.401.675.65 1.045l.03-.016c.257.356.36.526.44.602l.067.104c.36.612.354.28.557.562-.148-.274-.048-.455-.177-.602-.03-.108-.084-.214-.126-.322.287.33.565.663.81.846l.077.092.53.66c.389.416.802 1.208 1.139 1.413l.617.897c.202.365.395.551.586.773-.08.054.101.334.194.307.088.197.489.871.62 1.04.04.064.08.12.124.067.117.196.076.254-.07.183.137.25.288.245.415.597l.069-.036.058.105c-.069.062.015.21.1.36.258.371.446 1.124.717 1.263.42.907.53 1.12.898 1.854l.045.112c.12.401.275.621.424.875-.054.05-.06.132 0 .259.178.329.22 1.023.461 1.12l.269.93c.198.74.364 1.485.491 2.236.014.227.146.244.168.46.003.524-.046.825.114 1.319l.008.12c.025.32.037.645.049.97l.005.12c.077.408-.11 1.127.112 1.336l-.005.364zM34.123 13.687v-.134c.6.015 1.2.056 1.799.122 1.74.175 2.686.31 4.482 1.112.219.089.425.202.64.3l-.107.263a.29.29 0 01-.034.284 25.812 25.812 0 00-.778-.352l-.113-.047c-.112-.046-.145-.027-.238-.058-.312-.106-.884-.396-1.034-.358-.346-.185-.503-.185-.921-.31-.623-.177-1.553-.466-2.006-.485-.507-.1-1.23-.249-1.561-.238a8.057 8.057 0 00-.541-.092c.127.01.262.01.412-.007zm11.136 4.17c.275.22.524.437.658.665.081.064.168.155.256.252-.332-.25-.648-.476-.959-.69.017-.076.036-.152.045-.227zm14.608 28.17c-.064-.977.38-1.895-.073-2.537-.022.099-.007.25-.106.25l.003-.375c.08-.028.202-.001.205-.124-.054-.672.088-1.683-.17-2.133.045-.277.094-.427-.061-.752.058-.378.05-.392-.075-.743.055-.229.033-.37-.043-.625-.064-.205-.145-.434-.175-.757a24.95 24.95 0 00-.662-2.552c-.205-.87-.558-1.324-.834-2.093l-.047-.115c-.29-.496-.208-.665-.511-1.002-.274-.529-.248-.463-.466-1.016l-.149.07c-.025-.095 0-.16.095-.181-.086-.222-.2-.209-.291-.411l-.28-.554c-.059-.11-.127-.1-.187-.182.06-.181-.414-1.033-.593-1.085-.06-.157-.023-.258-.183-.466l-.065.04c-.194-.488-.17-.346-.511-.847a41.405 41.405 0 00-.951-1.446c-.132-.127-.302-.57-.414-.464-.567-.804-1.245-1.692-1.625-2.014l-.078-.095c-.217-.2-.515-.737-.687-.707l-.08-.093c-.28-.253-.16-.344-.446-.593-.288-.214-.665-.692-.933-.807l-.085-.087c-.078-.249-.307-.33-.522-.519l-.323-.304-.04-.064c-.074-.301-.264-.364-.452-.774-.316-.406-.74-1.167-1.044-1.312l-.33-.403c-.327-.39-.68-.764-1.043-1.132l.016-.032.514-1.063c.062-.557.363-.58.461-1.25l.245-.492.035-.07c-.105-.196.294-.305.151-.614.307.09.228-.321.378-.434.037-.07-.063-.128-.058-.194l.286-.556c.088-.273.434-.562.265-.817.082.031.162.058.17-.011.052-.306.218-.744.494-1.222l.074-.137c.088-.226.369-.455.205-.67l.038-.068c.291-.11.245-.691.577-1.008l.039-.067c.178-.243.292-.487.257-.73.04-.065-.063-.132-.057-.2.704.266.15-.492.58-.653.04-.065.16-.02.218-.06-.098-.068-.126-.137-.056-.2.083-.085.102-.265.302-.187.284.123.217.228.33.342.04-.146.268-.029.4-.046-.464-.376-.24-.194.029-.325-.446-.313-.461-.227-.743-.567.139-.125.14-.256.073-.394.181.098.293-.08.126-.191.316-.175.08-.38.577-.289-.704-.248-.227-.552-.017-.533.597-.03-.06.443.328.361.056-.168.188-.225.356-.227.85.307 1.102-.267.213-.831.021-.086-.083-.187-.186-.288-.396-.304-.573-.829-.922-.92l-.138-.087C50.767 2.085 49.61 1.159 48.99.93c-.38-.34-1.728-1.063-2.112-.909-.213.14-.57.036-.828.105.097.08.27.165.232.238-.478.115.398.58-.168.897-.17.22.062.449-.206.665L45.866 2c-.112.194-.291.39-.155.59-.031.333-.464.26-.289.514.053.295-.129.587-.302.882l-.156.295-.156.296c-.085.658-.4 1.32-.657 1.983l-.217.442-.175.371c.068.345-.289.915-.519 1.469-.067.124-.074.244 0 .355-.213.072-.153.591-.397.888l-.098.222-.353.813c-.075.22-.277.455-.122.647-.288.466-.47 1.244-.801 1.916a.346.346 0 00-.066.271c-.466-.364-.898-.408-1.566-.778-.454-.106-1.195-.58-1.485-.38a18.367 18.367 0 00-1.353-.332 21.79 21.79 0 00-2.33-.342c-.394-.018-.9-.14-1.095.062-.041-.352-.229.175-.545-.018-.636-.12-1.536-.04-2.704.066l-1.069.089c-1.57.144-2.104.368-2.998.568l-.382.066-.182.033-.092.015-.02.004v-.003l.043-.011h-.006l-.013.002-.025.004-.139.024c-.552.092-1.097.202-1.637.325l-.136.031c-.356.086-.787.128-.881.4l-.264.073c-.49-.31-.59.342-1.18.352l-.26.083c-.857.404-2.246.54-2.723 1.215.083.167.199.154.288.28-.245.103-.384-.387-.663-.12-.28.248-1.096.23-1.019.668-.16.066-.287-.132-.459.01-1.21.48-1.645 1.222-2.878 1.542.061.104.114.204-.007.233l-.926.571c-.166-.18-.201-.017-.23.146l-.344.225c-.553-.195-1.07.63-1.597.86l.13.157-.222.163c-.368.274-.736.554-1.099.844-.38.47-1.406.813-1.344 1.414l-.104.093c-.842.095-1.462 1.268-2.178 1.852-.472 1.013-1.878 1.34-1.515 2.49.107-.065.18-.224.356-.107l-.26.348c-.161-.068-.36-.237-.451-.125-.346.704-1.376 1.503-1.203 2.239-.291.22-.51.309-.443.797-.386.311-.4.336-.414.824-.578.332-.229.89-.677 1.584a19.245 19.245 0 00-.927 3.26 3.3 3.3 0 00-.163.795 5.47 5.47 0 00.004.788l.036.26.016.133.003.034-.002.089v.01l.002.017.008.074c.017.2.02.406-.008.633l-.01.137c.178.634-.187.763.164 1.244.089.661.081.58-.017 1.246l.442-.01c-.047.108-.184.164-.44.15-.048.263.25.297.224.546l.023.695c.004.14.183.154.23.264-.358.17-.29 1.273.092 1.388-.052.193-.285.296-.166.579l.217-.024c-.16.61-.046.444.132 1.114.09.652.196 1.303.328 1.952.154.18-.098.777.353.65.236 1.103.555 2.368.993 2.826l.044.134c.22.283.106 1.07.575 1.008l.052.133c.3.35-.178.522.13.873.37.293.494 1.015.962 1.143l.062.129c-.235.412.179.499.388.765.182.336.363.673.56 1.003.17.472.488.649.767.876l.079.12c1.52 2.012 2.69 3.07 4.215 4.447.294.47.652.293.964.618.162.305.666.305 1.087.89.295.234.6.45.902.67l.117.08c.115.08.22-.026.333.009.37.122.8.802 1.145.532.23.468.489.369.95.565.689.265 1.525 1.061 2.158.905.553.183 1.23.714 1.697.53.421.381 1.232.942 1.723.663.699.239 1.598-.132 2.183-.073l.13.025c.226.41.474.016.88.332.543-.017 1.368.419 1.73.071l.523.056c.743.07 1.486.113 2.23.135l.262.006c.483-.041 1.048.007 1.589.015.273.002.547-.01.793-.043.232-.038.434-.1.605-.203.305.292.483.013.786-.061.007.088.118.17.128-.011.666.26 1.012-.1 1.795-.034.415-.151 1.206.035 1.376-.35l1.262-.211a46.6 46.6 0 002.135-.44c.355-.098.836-.119.963-.388.12.365.165-.253.496-.13.602-.049 1.4-.36 2.456-.75l.971-.348c1.42-.532 1.897-.881 2.673-1.298.233-.111.464-.227.693-.348l.115-.06c.459-.238.91-.492 1.357-.757l.11-.068c.295-.177.658-.347.699-.597l.216-.14c.46.086.455-.465.953-.67l.208-.156c.674-.604 1.79-1.244 2.078-1.956-.088-.092-.18-.036-.268-.096.183-.177.36.142.544-.177.192-.3.824-.64.702-.936.114-.119.236-.029.346-.212.838-.907 1.037-1.667 1.815-2.524-.058-.044-.11-.092-.036-.175.178-.293.344-.594.505-.897.14.045.133-.092.119-.229l.171-.345c.382-.153.523-1.035.774-1.49l-.106-.043.089-.24c.153-.4.285-.807.41-1.215.099-.55.517-1.363.338-1.758l.028-.124c.376-.532.349-1.704.495-2.493z" fill="#2B2847"/></svg>