<svg width="100" height="110" fill="none" xmlns="http://www.w3.org/2000/svg"><path d="M0 0v89.768h72.743V0H0z" fill="#EFEFEF"/><path d="M4.56 34.58v3.042h61.816v-3.041H4.56zm0-8.813v3.042h58.19v-3.042H4.56zm0-8.813v3.043h61.816v-3.043H4.56zM58.385 8.14H4.561v3.044h53.824V8.14zM4.56 46.405h58.19v-3.043H4.56v3.043zm0 8.782h61.816v-3.042H4.56v3.041zm0 8.783h56.35v-3.044H4.56v3.044zm0 8.783h61.816V69.71H4.56v3.043zm0 8.781h61.816v-3.043H4.56v3.043z" fill="#BBBCBD"/><path d="M74.123 15.758H22.016v89.769h72.743V36.395L74.123 15.758" fill="#fff"/><path d="M26.576 50.339v3.04H88.39v-3.04H26.576zm0-8.815v3.043H88.39v-3.043H26.576zm0-8.814v3.044H88.39V32.71H26.576zM80.4 23.898H29.31v3.043H80.4v-3.043M30.227 62.166H88.39v-3.043H30.227v3.043m-3.651 8.779H88.39v-3.043H26.576v3.043zm0 8.781H88.39v-3.042H26.576v3.042zm0 8.784H88.39v-3.044H26.576v3.044zm0 8.783H88.39V94.25H26.576v3.043z" fill="#BBBCBD"/><path d="M74.123 36.394h20.635L74.123 15.756v20.638z" fill="#fff"/><path d="M94.758 36.394H74.123l20.635 20.635V36.394z" fill="#A4A6A9"/><path d="M36.955 60.075h32.129v11.908H38.092l-1.137-11.908z" fill="#BBBCBD"/><path d="M52.408 73.93l-8.084-13.774 2.105-1.232 5.802 9.886 7.297-14.69 2.183 1.085-9.303 18.726" fill="#EC1D27"/><path d="M48.944 78.135c-6.87-2.501-10.408-10.1-7.907-16.968 2.502-6.87 10.1-10.41 16.97-7.91 6.868 2.504 10.411 10.102 7.908 16.97-2.504 6.87-10.102 10.412-16.97 7.908zM65.07 53.122c-6.944-6.403-17.767-5.965-24.17.982-6.403 6.945-5.963 17.766.982 24.169 6.445 5.939 16.222 5.989 22.715.42l6.309 5.816-1.454 1.575 24.908 22.964 5.64-6.116-24.908-22.964-1.451 1.575-6.31-5.815c5.025-6.923 4.18-16.664-2.26-22.606" fill="#2B2847"/></svg>