<svg width="124" height="168" fill="none" xmlns="http://www.w3.org/2000/svg"><path d="M84.41 18.383s-41.726 3.818-53.29-9.355c0 0 43.08-23.413 61.76 7.962 0 0 14.61 4.298 11.659 22.318 0 0-3.241-4.555-7.956-4.016-4.717.541-12.171-16.909-12.171-16.909z" fill="#543F3B"/><path d="M99.725 60.791c0 18.591-16.1 34.695-37.803 34.695-21.71 0-39.302-15.063-39.302-33.649 0-48.623 16.845-49.772 38.552-49.772 21.71 0 38.553 5.034 38.553 48.726z" fill="#FDE3AE"/><path d="M30.063 69.667c0 2.968-2.41 5.387-5.376 5.387a5.39 5.39 0 01-5.38-5.387c0-2.97 2.41-5.381 5.38-5.381a5.382 5.382 0 015.376 5.38zm63.708 0a5.388 5.388 0 005.382 5.387 5.39 5.39 0 005.385-5.387 5.384 5.384 0 00-10.767 0zM55.305 93.966v17.145h11.733V93.966H55.305z" fill="#FDE3AE"/><path d="M63.812 6.792C35.274 3.61 27.719 14.441 25.807 26.31c0 0 4.23 9.614 35.691 9.614 31.462 0 34.2-9.613 34.2-9.613C89.504 10.89 73.418 7.866 63.812 6.792z" fill="#543F3B"/><path d="M92.848 17.868s-29.913-22.24-69.72-6.047c0 0 21.015 10.399 27.095 9.256 6.08-1.15 43.927-3.248 42.625-3.209zm6.454 46.756s8.387-33.563-3.604-38.315c-2.046-.814-6.162 4.843-6.162 4.843s-.469 13.332 9.766 33.472zm-76.484 0s-8.525-34.165 3.46-38.917c2.052-.812 6.31 5.445 6.31 5.445s.47 13.332-9.77 33.472z" fill="#543F3B"/><path d="M31.218 29.325s-7.631-1.726-11.338-9.73c0 0 5.224-3.04 16.788-7.53 6.832-2.657-5.45 17.26-5.45 17.26z" fill="#543F3B"/><path d="M92.397 27.192c-4.015 4.858-53.663 11.701-71.273-6.622 0 0 40.93 9.841 65.688 2.725 5.062-1.457 8.084.875 5.585 3.897z" fill="#756562"/><path d="M115.499 118.162c-1.068-1.027-23.292-8.312-23.292-8.312-4.974 5.038-31.54 1.89-31.54 1.89v.121c.794-.033 1.253-.063 1.253-.063l.003 55.735c23.413 0 44.79-8.664 61.145-22.936-1.142-11.507-3.331-22.362-7.569-26.435z" fill="#543F3B"/><path d="M8.342 118.162c1.07-1.027 23.292-8.312 23.292-8.312 4.975 5.038 31.539 1.89 31.539 1.89v.121c-.792-.033-1.25-.063-1.25-.063l-.003 55.735c-23.413 0-44.792-8.664-61.147-22.936 1.144-11.507 3.333-22.362 7.57-26.435z" fill="#543F3B"/><path d="M61.923 143.017s-10.638.507-11.363 0c-.724-.509-4.073-16.923-3.991-19.469.088-2.543.772-11.067 3.99-11.067 3.22 0 27.209-6.362 30.48-1.275 3.277 5.091-7.92 38.297-19.116 31.811z" fill="#F0F0EF"/><path d="M61.923 109.85v12.724h-3.395s-2.544-3.903-4.24-8.989c0 0 3.479-3.395 7.635-3.735zm0 0v12.724h3.39s2.547-3.903 4.244-8.989c0 0-3.48-3.395-7.634-3.735z" fill="#543F3B"/><path d="M55.305 100.366l-16.107 6.655 12.293 14.365 10.432-11.536s-6.419-2.432-6.618-9.484zm11.734.123l17.61 6.532-12.378 14.365-10.348-11.536s5.053-2.183 5.116-9.361z" fill="#fff"/><path d="M58.528 122.574c-3.544 10.347-4.24 27.567-4.24 27.567l7.635 14.333v-41.9h-3.395zm6.785 0h-3.39v41.9l8.935-13.775s-.428-15.412-5.545-28.125z" fill="#543F3B"/><path d="M78.574 104.768l13.633 5.082-7.559 11.536 4.772 6.869-27.497 36.219 16.65-59.706zm-34.026.041l-13.632 5.081 7.559 11.535-4.771 6.87L61.2 164.512l-16.652-59.703z" fill="#756562"/><path d="M109.499 63.503c0-6.72-4.775-12.329-11.12-13.613v27.223c6.345-1.283 11.12-6.89 11.12-13.61z" fill="#2B2847"/><path d="M95.615 49.614c-.946 0-1.873.098-2.767.276v27.223a14.047 14.047 0 005.531 0V49.89a14.193 14.193 0 00-2.764-.276zm-83.61 13.889c0-6.72 4.776-12.329 11.123-13.613v27.223c-6.347-1.283-11.123-6.89-11.123-13.61z" fill="#2B2847"/><path d="M25.891 49.614c.946 0 1.872.098 2.766.276v27.223a14.047 14.047 0 01-5.53 0V49.89a14.161 14.161 0 012.764-.276zm42.181 41.654v-4.512c27.167 0 31.483-18.098 31.656-18.87l4.412.948c-.048.223-5.119 22.434-36.068 22.434z" fill="#2B2847"/><path d="M72.782 89.012a4.197 4.197 0 01-4.193 4.196h-7.206a4.195 4.195 0 010-8.39h7.206a4.196 4.196 0 014.193 4.194zm29.796-28.717l-4.359-1.173a42.388 42.388 0 001.455-10.998c0-22.382-17.459-40.593-38.922-40.593-21.46 0-38.92 18.21-38.92 40.593l.075 12.118-4.512.033-.077-12.136c0-24.886 19.485-45.122 43.434-45.122 23.952 0 43.436 20.236 43.436 45.107 0 4.103-.541 8.198-1.61 12.17z" fill="#2B2847"/></svg>