<svg width="117" height="108" fill="none" xmlns="http://www.w3.org/2000/svg"><path d="M11.137 70.662l1.685-3.763V56.686a16.06 16.06 0 013.123-9.516l11.034-15 12.608-8.404L42.801 52.3l-2.107 15.908-6.104 13.07-23.453-10.616z" fill="#FDE3AE"/><path d="M107.054 0h-73.57c-4.746 0-8.626 3.884-8.626 8.627v50.357c0 4.745 3.88 8.626 8.627 8.626h73.569c4.745 0 8.629-3.881 8.629-8.626V8.627c0-4.743-3.884-8.627-8.629-8.627z" fill="#2B2847"/><path d="M31.56 6.327v54.958h74.613V6.327H31.56zm82.505 27.478a3.205 3.205 0 01-6.41 0 3.205 3.205 0 016.41 0z" fill="#fff"/><path d="M31.281 33.805a2.59 2.59 0 01-2.59 2.59 2.59 2.59 0 112.59-2.59z" fill="#8F9295"/><path d="M71.04 19.27v22.46h29.958V19.27H71.04zM38.687 49.866v8.824h58.885v-8.824H38.687z" fill="#BBBCBD"/><path d="M81.158 40.434L74.68 21.648l1.88-.65 4.948 14.337 10.66-21.066 1.775.899-12.785 25.266z" fill="#EB3140"/><path d="M51.003 11.95v2.32h11.939v-2.32h-11.94zm0 6.515h11.939v-2.32h-11.94v2.32zm0 1.875v2.32h11.939v-2.32h-11.94zm0 6.518h11.939V24.54h-11.94v2.32z" fill="#BBBCBD"/><path d="M37.045 11.95v15.236h11.65V11.95h-11.65z" fill="#fff"/><path d="M48.557 23.366c-.296-.602-.623-1.26-.657-1.283-.043-.028-1.61-.504-2.615-.81l-.714-.213-.257-.76-.022.02v-.743a.945.945 0 00.199-.195 1.07 1.07 0 00.16-.337c.052-.184.03-.474.167-.619.125-.134.253-.186.342-.37.155-.318.205-.7.186-1.05-.005-.098-.057-.263-.184-.168-.06.042-.03.148-.084.184-.001.002-.003.002-.005.002.046-.157.095-.32.11-.395.076-.398.06-.573.076-.742.067-.6.1-1.175-.27-1.678-.396-.539-.984-.855-1.296-.814-.017.002-.229.022-.203.046-.112-.1-.309-.108-.446-.141-.737-.177-1.667.283-2.2.77-.564.515-.48 1.181-.417 1.817.022.221.02.469.083.681.036.125.05.23.054.34-.007-.027-.017-.054-.039-.07-.128-.095-.18.07-.184.169-.019.35.03.73.186 1.049.09.184.216.236.34.37.14.145.116.435.17.62a.985.985 0 00.16.336c.076.106.176.182.282.257v.686l-.026-.024-.256.759c-.07.018-.162.048-.28.084l-.11.033-.126.037-.198.06c-1.007.305-2.575.78-2.616.809-.035.024-.413.787-.725 1.423a.99.99 0 00-.097.424v3.256h11.649v-3.22c0-.207-.046-.412-.137-.6z" fill="#A4A6A9"/><path d="M37.512 29.582v3.307h26.436v-3.307H37.512zm0 5.45v3.307h26.436v-3.307H37.512zm.274 6.1v3.308h26.436v-3.308H37.786z" fill="#BBBCBD"/><path d="M46.025 49.017c-.004.034-.004.065-.004.102 0 .1-.004.203-.019.306a3.06 3.06 0 01-.626 1.475c-.575.75-1.498 1.288-2.575 1.402h-9.086l-3.418 13.935.984 5.308 3.307-.662-9.38 3.982-6.854-8.187 4.2-22.562h7.743l8.615 1.436.995.167 4.967.828c.113.104 1.14 1.077 1.15 2.47z" fill="#FDE3AE"/><path d="M8.62 73.094l2.518-5.483 26.238 13.667-2.211 3.982L8.619 73.094z" fill="#fff"/><path d="M0 84.455l7.736-12.912 29.64 13.716-7.32 16.064L0 84.455z" fill="#2B2847"/><path d="M46.025 49.017c-.004.034-.004.065-.004.102-.004.06-.007.12-.015.183-.057.461-.21.9-.443 1.285-.898-.076-1.85-.184-2.278-.322-4.284-1.384-3.636-3.883-3.378-4.546l4.966.828c.114.104 1.14 1.077 1.152 2.47z" fill="#EFD9C4"/><path d="M110.525 86.887c-.149.108-.696.048-.871.061l-1.683.114c-1.707.117-1.425.75-3.129.863-4.149.288-8.341-.075-12.484.21l-4.586.31c-.27.021-1.483.276-1.674.083-.11-.103-.103-.663-.134-.808a38.072 38.072 0 00-.302-1.432c-.27-1.138-.645-2.619-.937-3.266-.214-.465-5.65-8.32-5.837-9.464-.213-1.383-.191-2.858-.292-4.266l-.401-5.88c-.028-.437-.099-.902-.091-1.343.039-1.333.533-2.724 1.651-3.396.694-.418 1.858-.614 2.6-.084.586.428.767 1.286.942 1.952.245.956.303 1.956.342 2.948.043 1.272.43 1.748.696 1.512.377-.317.094-1.447.07-1.85l-1.86-27.08c-.05-.768-.178-1.58-.158-2.35.01-.291.143-.56.335-.795.048-.064.1-.127.158-.183.005-.009.017-.017.024-.026.127-.124.266-.255.398-.36a3.757 3.757 0 014.31-.334c.152.086.3.18.433.281a2 2 0 01.47.46c.14.191.235.416.261.675.041.433.058.861.091 1.3.11 1.642 1.18 18.951 1.362 19.898.141.74.945.634.969-.097.028-.729-.099-1.497-.15-2.224-.073-1.01-.392-4.388-.202-4.998.538-1.667 3.2-2.172 4.583-1.373.902.516 1.356 1.48 1.421 2.49l.197 2.858c.047.705.01 1.486.15 2.18.137.653.559.636 1.026.31.426-.297.416-3.033.353-3.928-.076-1.08.075-2.117.878-2.928 1.098-1.112 2.812-1.138 4.1-.327.937.586 1.078 1.441 1.145 2.438.067.994.08 4.777.91 4.766.364.002.4-1.25.403-1.6.002-1.465 1.159-2.725 2.623-2.818 1.175-.074 2.271.601 2.902 1.568-.006-.005-.004-.01-.004-.01.017.014.03.03.046.07.012.013.023.03.028.05.01.006.008.011.017.017l-.002.009c.236.781.763 10.332 1.031 14.275l.305 4.405c.126 1.904-.7 3.87-1.604 5.513-.232.414-1.101 4.16-1.171 4.614-.027.164.148 2.824.271 4.691.054.778.093 1.42.113 1.687.015.234.107.504-.042.612z" fill="#FDE3AE"/><path d="M112.392 84.457l-28.576 1.96.383 5.588 28.577-1.96-.384-5.588z" fill="#fff"/><path d="M117 105.621l-.312-16.822-35.803 2.456 1.367 16.356 34.748-1.99z" fill="#2B2847"/><path d="M86.108 37.603c-1.407.301-2.742-1.002-2.982-2.9l-.194-1.584a3.64 3.64 0 01-.027-.402c.126-.125.266-.255.398-.36a3.757 3.757 0 014.31-.334c.152.086.299.18.433.281l.026.019.154 1.266c.233 1.901-.724 3.707-2.118 4.014z" fill="#EFD9C4"/></svg>