<svg width="141" height="59" fill="none" xmlns="http://www.w3.org/2000/svg"><path d="M3.506 44.79h1.75V33.138H2.952A2.54 2.54 0 00.42 35.49l-.41 5.535a3.506 3.506 0 003.496 3.764z" fill="#000"/><path d="M108.092 0a12.96 12.96 0 0110.593 5.497l.014.02 17.637 25.164 2.954 4.211c.392.556.66 1.195.783 1.853.063.309.092.618.092.926v10.782a4.848 4.848 0 01-4.849 4.848H16.003a14.33 14.33 0 01-13.376-9.132 14.197 14.197 0 01-.988-5.231L3.703 7.15C3.934.776 5.228-.003 10.855 0h97.237z" fill="#fff"/><path d="M18.293 44.169h89.604a9.889 9.889 0 00-1.732 5.604v3.528H16.191c-6.181 0-11.455-3.779-13.564-9.132h15.666z" fill="#fff"/><path d="M68.487 48.645c0 .868.704 1.57 1.57 1.57h18.828c.868 0 1.57-.702 1.57-1.57V5.367a1.57 1.57 0 00-1.57-1.57H70.058a1.57 1.57 0 00-1.57 1.57v43.278z" fill="#fff"/><path d="M89.06 6.242v15.74a.901.901 0 01-.902.903h-17.16a.903.903 0 01-.902-.902V6.243a.9.9 0 01.902-.901h17.16a.9.9 0 01.901.9z" fill="#A6C6D8"/><path d="M93.285 48.645c0 .868.703 1.57 1.57 1.57h3.617c1.596 0 2.911-1.159 3.223-2.722a13.84 13.84 0 0110.771-10.823c1.646-.337 2.786-1.852 2.786-3.533V5.845a2.047 2.047 0 00-2.048-2.049H95.333c-1.13 0-2.048.917-2.048 2.049v42.8z" fill="#fff"/><path d="M95.903 5.342h16.831a1.11 1.11 0 011.109 1.11v17.597c0 .668-.587 1.184-1.249 1.099l-16.83-2.139a1.109 1.109 0 01-.969-1.1V6.451c0-.613.497-1.11 1.108-1.11zm21.692 1.633l13.718 19.58a.5.5 0 01-.472.782l-13.718-1.745a.499.499 0 01-.435-.495V7.262c0-.488.628-.687.907-.287z" fill="#A6C6D8"/><path d="M117.574 8.5v16.25l7.52.955 4.982.634L117.574 8.5z" fill="#A6C6D8"/><path d="M122.46 30.072l.274-.07a.563.563 0 00.217-.768l-3.32-5.935a.564.564 0 10-.983.55l3.32 5.935a.564.564 0 00.492.288z" fill="#3C3C3B"/><path d="M118.988 18.104c1.079.25 1.746 2.472 1.495 5.115-.251 2.64-1.323 4.697-2.43 4.74l.935-9.855zm6.526 31.532c0 1.287-.227 2.523-.638 3.665h10.441a4.849 4.849 0 004.848-4.848V37.67c0-.308-.03-.617-.092-.926h-1.451c-.762 0-1.535.062-2.287.176a15.621 15.621 0 00-7.68 3.418l-4.613 3.83a10.827 10.827 0 011.472 5.467z" fill="#fff"/><path d="M136.842 31.882v7.804a2.341 2.341 0 002.342 2.34h.691a.798.798 0 00.798-.797V37.67c0-.307-.031-.617-.093-.926a4.786 4.786 0 00-.782-1.852l-2.265-3.229a.38.38 0 00-.691.219z" fill="#000"/><path d="M136.336 43.354v.69h3.829v-.69h-3.829zm0 1.32v.699h3.829v-.7h-3.829zm0 1.328v.69h3.829v-.69h-3.829zm0 1.327v.69h3.829v-.69h-3.829z" fill="#1D1715"/><path d="M107.897 44.169a9.924 9.924 0 018.206-4.335h.201a9.923 9.923 0 018.206 4.335 9.889 9.889 0 011.732 5.604v3.528h-20.077v-3.528c0-2.08.64-4.008 1.732-5.604zm-84.805 0a9.923 9.923 0 018.206-4.335h.201a9.924 9.924 0 018.206 4.335 9.898 9.898 0 011.732 5.604v3.528H21.359v-3.528c0-2.08.64-4.008 1.733-5.604z" fill="#3C3C3B"/><path d="M6.878 24.26h56.676a1.65 1.65 0 001.65-1.649V5.447a1.65 1.65 0 00-1.65-1.65H8.153a1.65 1.65 0 00-1.651 1.65L5.228 22.61c0 .91.739 1.65 1.65 1.65z" fill="#A6C6D8"/><path d="M7.683 21.868L8.732 7.736a1.67 1.67 0 011.665-1.546H62.81L13.462 8.183a3.06 3.06 0 00-2.838 2.292l-2.94 11.393z" fill="#fff"/><path d="M95.238 25.903c0 .413 1.11.746 2.482.746s2.484-.333 2.484-.746c0-.412-1.112-.746-2.484-.746-1.372 0-2.482.334-2.482.746zm-11.04 0c0 .413 1.112.746 2.484.746 1.372 0 2.484-.333 2.484-.746 0-.412-1.112-.746-2.484-.746-1.372 0-2.484.334-2.484.746z" fill="#DAD1D1"/><path fill-rule="evenodd" clip-rule="evenodd" d="M119.702 50.215a3.5 3.5 0 11-3.501-3.5 3.496 3.496 0 013.501 3.5z" fill="#fff"/><path d="M110.232 50.216a5.967 5.967 0 015.972-5.964 5.965 5.965 0 015.964 5.964 5.968 5.968 0 01-11.936 0zm-2.813 0A8.78 8.78 0 00116.204 59a8.768 8.768 0 007.113-3.631 8.753 8.753 0 001.671-5.153c0-1.596-.43-3.102-1.183-4.392a8.75 8.75 0 00-7.601-4.393 8.78 8.78 0 00-8.785 8.785z" fill="#1D1715"/><path d="M120.094 49.502a3.96 3.96 0 00-.656-1.566l1.181-1.183a5.602 5.602 0 011.152 2.749h-1.677zm-.639 2.966a3.927 3.927 0 00.648-1.583h1.675a5.55 5.55 0 01-1.142 2.766l-1.181-1.183zm-2.563 1.643a3.907 3.907 0 001.588-.662l1.186 1.184a5.58 5.58 0 01-2.774 1.154v-1.675zm-2.971-.662c.466.33 1.005.559 1.589.663v1.675a5.544 5.544 0 01-2.77-1.154l1.181-1.184zm-1.621-2.564c.098.581.323 1.117.647 1.583l-1.182 1.182a5.535 5.535 0 01-1.137-2.765h1.672zm.665-2.95c-.323.46-.552.992-.658 1.567h-1.676a5.603 5.603 0 011.153-2.75l1.181 1.184zm2.545-1.616c-.57.1-1.101.323-1.563.642l-1.182-1.181a5.554 5.554 0 012.745-1.136v1.675zm2.946.642a3.942 3.942 0 00-1.564-.642v-1.675a5.539 5.539 0 012.744 1.136l-1.18 1.181zm-.367 6.094a3.458 3.458 0 01-1.888.569 3.37 3.37 0 01-1.883-.569 3.44 3.44 0 01-.974-.983 3.356 3.356 0 01-.484-1.187 3.368 3.368 0 01-.069-.67 3.385 3.385 0 01.57-1.885 3.46 3.46 0 01.983-.972 3.486 3.486 0 011.166-.482 3.468 3.468 0 011.382 0c.422.09.814.255 1.167.484.389.252.723.583.981.97.233.349.403.746.491 1.172.051.23.081.47.081.713a3.404 3.404 0 01-.557 1.857c-.25.389-.582.723-.966.983zm-1.888-9.011a6.172 6.172 0 100 12.343 6.172 6.172 0 100-12.343z" fill="#DAD1D1"/><path fill-rule="evenodd" clip-rule="evenodd" d="M34.895 50.215a3.499 3.499 0 11-6.999 0c0-1.935 1.567-3.5 3.5-3.5a3.495 3.495 0 013.499 3.5z" fill="#fff"/><path d="M25.425 50.216a5.968 5.968 0 015.973-5.964 5.965 5.965 0 010 11.928 5.969 5.969 0 01-5.973-5.964zm-2.811 0A8.78 8.78 0 0031.398 59a8.77 8.77 0 007.114-3.631 8.762 8.762 0 001.67-5.153c0-1.596-.43-3.102-1.182-4.392a8.751 8.751 0 00-7.602-4.393 8.78 8.78 0 00-8.784 8.785z" fill="#1D1715"/><path d="M35.289 49.502a3.958 3.958 0 00-.658-1.566l1.181-1.183a5.586 5.586 0 011.154 2.749h-1.677zm-.64 2.966a3.902 3.902 0 00.647-1.583h1.677a5.56 5.56 0 01-1.142 2.766l-1.182-1.183zm-2.563 1.643a3.907 3.907 0 001.589-.662l1.186 1.184a5.579 5.579 0 01-2.775 1.154v-1.675zm-2.97-.662c.465.33 1.004.559 1.589.663v1.675a5.548 5.548 0 01-2.77-1.154l1.18-1.184zm-1.621-2.564c.098.581.323 1.117.646 1.583L26.96 53.65a5.516 5.516 0 01-1.138-2.765h1.673zm.665-2.95c-.323.46-.553.992-.658 1.567h-1.677a5.6 5.6 0 011.153-2.75l1.182 1.184zm2.545-1.616a3.95 3.95 0 00-1.564.642L27.96 45.78a5.545 5.545 0 012.745-1.136v1.675zm2.944.642a3.929 3.929 0 00-1.563-.642v-1.675a5.54 5.54 0 012.745 1.136l-1.182 1.181zm-.367 6.094a3.43 3.43 0 01-1.887.569 3.382 3.382 0 01-1.884-.569 3.452 3.452 0 01-.972-.983 3.306 3.306 0 01-.484-1.187 3.376 3.376 0 01.006-1.383 3.418 3.418 0 014.025-2.626c.421.09.814.255 1.168.484.388.252.723.583.981.97.233.349.403.746.49 1.172a3.29 3.29 0 01.015 1.383c-.09.428-.254.83-.49 1.187a3.432 3.432 0 01-.968.983zm-1.887-9.011a6.172 6.172 0 100 12.343 6.172 6.172 0 100-12.343z" fill="#DAD1D1"/><path d="M86.682 21.992h-8.047l-7.638-12.04V6.229l5.757.007h.006l9.922 15.757zm1.477 0h-.493L77.781 6.235h2.633l7.745 12.394v3.363zm24.575 2.278l-7.429-.95h-.006L95.685 8.222V6.448l.22-.22h6.641l10.408 16.453v1.369c0 .13-.112.22-.22.22zm.22-3.16l-9.387-14.881h2.627l6.76 10.746v4.134zm17.122 5.229l-4.982-.634-7.52-11.88V8.501l12.502 17.838z" fill="#fff"/></svg>