<svg width="71" height="50" viewBox="0 0 71 50" fill="none" xmlns="http://www.w3.org/2000/svg">
<path d="M1.46239 28.6132L20.8863 48.5043C22.8354 50.4986 25.9982 50.4986 27.9488 48.5043C29.8994 46.5101 29.8994 43.2667 27.9488 41.2725L12.0572 24.9973L27.9488 8.72932C29.8994 6.73509 29.8994 3.49173 27.9488 1.4975C26.9742 0.496731 25.6957 0 24.4179 0C23.1394 0 21.8616 0.496731 20.8863 1.4975L1.46239 21.3814C-0.487492 23.3829 -0.487492 26.619 1.46239 28.6132Z" fill="#EFD9C4"/>
<path d="M21.5313 28.6132L41.6021 48.5043C43.6177 50.4986 46.8851 50.4986 48.9006 48.5043C50.9155 46.5101 50.9155 43.2667 48.9006 41.2725L32.4783 24.9973L48.9006 8.72932C50.9155 6.73509 50.9155 3.49173 48.9006 1.4975C47.8928 0.496731 46.5717 0 45.2514 0C43.9303 0 42.6099 0.496731 41.6021 1.4975L21.5313 21.3814C19.5157 23.3829 19.5157 26.619 21.5313 28.6132Z" fill="#EFD9C4"/>
<path d="M41.5312 28.6132L61.6017 48.5043C63.6173 50.4986 66.8846 50.4986 68.9001 48.5043C70.9156 46.5101 70.9156 43.2667 68.9001 41.2725L52.478 24.9973L68.9001 8.72932C70.9156 6.73509 70.9156 3.49173 68.9001 1.4975C67.8923 0.496731 66.5713 0 65.2509 0C63.9298 0 62.6095 0.496731 61.6017 1.4975L41.5312 21.3814C39.5157 23.3829 39.5157 26.619 41.5312 28.6132Z" fill="#EFD9C4"/>
</svg>
