<svg width="60" height="68" viewBox="0 0 60 68" fill="none" xmlns="http://www.w3.org/2000/svg">
<path fill-rule="evenodd" clip-rule="evenodd" d="M58.872 43.4743L58.8436 44.2033C58.7884 44.8984 58.6445 47.0016 58.4196 47.6906L58.3716 47.9276C58.2916 48.7018 57.7841 49.6786 57.8526 50.2926C57.801 50.5171 57.6428 50.5029 57.5842 50.7125C57.3486 51.3522 57.0882 51.9831 56.7869 52.5936C56.3923 53.169 56.4687 53.5888 56.0803 54.128C55.9764 54.301 55.8706 54.4719 55.7568 54.6387C55.5844 54.9106 55.3942 55.1706 55.2085 55.4334C54.8227 56.1108 53.9304 56.7649 53.7482 57.3682C52.6186 58.4021 51.3556 59.5811 50.2811 60.4329C49.8527 60.8339 48.9523 61.0602 48.7835 61.5131C48.1533 61.52 47.7818 62.1243 47.3072 62.1341C46.9011 62.4345 46.0541 62.5156 45.9118 62.9212C45.5812 63.1498 45.4621 62.8237 45.343 63.1554C44.0276 63.7347 42.3914 64.1301 41.3693 64.4601C41.0662 64.7327 40.6334 64.5517 40.0548 64.7853L40.0877 64.9304C39.526 65.0571 38.9616 65.1782 38.3955 65.2823C36.7512 65.6426 35.8873 65.8616 33.9934 65.8901C33.4592 65.9403 32.9277 65.9792 32.3909 66.0116C31.9403 66.0889 31.2968 65.9186 31.0346 66.218C30.6898 66.0934 30.4231 66.0248 29.9165 66.2146C29.2233 65.6987 28.0616 66.3117 27.4519 65.9036C27.0644 65.973 26.4219 65.5712 26.2005 65.9186L26.0779 65.9019C25.9632 65.5044 25.2345 65.7102 24.8816 65.5329C24.5972 65.4769 24.4665 65.7477 24.119 65.5497C24.1484 65.3028 23.8595 65.3377 23.672 65.2771C22.9912 65.3307 22.9734 64.819 22.5655 64.6408L22.5192 64.8041C22.0846 64.7417 21.9087 64.6355 21.7611 64.7566L21.6429 64.7212C21.2518 64.4681 21.0705 64.8771 20.8794 65.2656C20.5968 65.2719 20.2929 65.3171 19.9729 64.967C19.029 64.6971 18.5304 64.4573 17.5981 64.0128C17.2363 63.9431 16.8266 63.3149 16.5102 63.5902L16.288 63.4575C15.9983 63.272 15.7068 63.0903 15.4241 62.8943C15.2082 62.6778 15.0011 62.6385 14.7931 62.675L14.6882 62.5985C14.1532 62.3649 13.6723 61.5218 13.1426 61.6199C11.9837 60.4603 10.8994 59.8964 9.82217 58.4804L9.67375 58.6015C9.35379 58.3957 9.23113 57.6258 8.80007 57.7737C8.82674 57.2659 8.04551 56.7071 7.83931 56.3426C7.5629 55.8915 7.29893 55.4345 7.05097 54.9684L6.87765 55.0648L6.81544 54.9471C7.2145 54.4942 6.28929 54.5496 6.34261 53.9961C6.10798 53.8019 6.21552 53.0997 5.77557 53.2369C5.4965 52.6451 5.35606 51.9002 4.90989 51.574L4.86723 51.4484C4.76325 51.1542 4.66993 50.8583 4.58016 50.5617C4.25842 50.003 4.42196 48.9622 3.86114 48.6931C3.77671 48.3053 3.68783 47.9158 3.6194 47.5245C3.62384 47.0595 3.40965 46.8126 3.231 46.5202C3.50652 46.4687 3.4452 46.1123 3.17234 46.1265C3.22478 45.8804 3.12435 45.0338 3.01592 44.8138C2.99636 44.7355 2.96793 44.6624 2.78751 44.7087C2.75018 44.4619 2.92971 44.41 3.20523 44.526C3.18745 44.2192 2.8035 44.181 2.92882 43.7639L2.71195 43.7845L2.70218 43.6525C2.9537 43.6073 2.92792 43.4245 2.90037 43.24C2.73061 42.7614 3.14034 41.9245 2.63374 41.6788C2.63818 40.5969 2.5822 40.3421 2.4631 39.4544L2.46932 39.3242C2.58752 38.878 2.42932 38.5907 2.31645 38.2719C2.49243 38.2503 2.58308 38.1738 2.55908 38.0217C2.5102 37.7299 2.60353 37.5739 2.66485 37.262C2.72707 36.9655 2.74395 36.7072 2.51109 36.5787C2.57419 36.1989 2.64974 35.8223 2.73951 35.4505C2.95193 34.5685 3.22656 33.7128 3.56252 32.8937C3.71094 32.6692 3.4452 32.5195 3.57496 32.2985C3.93936 31.738 4.23976 31.5793 4.24687 30.9189L4.31264 30.7978C4.49039 30.4744 4.67438 30.1552 4.86369 29.8443L4.93656 29.7277C5.05477 29.2571 5.86622 28.8212 5.58004 28.3632L5.82001 28.0328L6.31328 27.3857C6.84832 26.8126 8.25081 24.9715 8.91117 24.5232L9.10226 24.3415C9.61331 23.6606 10.7767 23.1955 10.9314 22.4575C11.094 22.2685 11.3109 22.453 11.4762 22.2873C12.0539 21.832 12.644 21.3938 13.2448 20.9774C13.3035 20.9524 13.3515 20.9238 13.4013 20.8963L13.4084 21.1459C13.4093 21.2824 13.3986 20.7786 13.4031 21.0505L13.4066 21.2099L13.4031 21.1975L13.4155 21.5121C13.4128 21.4909 13.4075 21.383 13.4155 21.5841L13.4146 21.5806C13.4208 21.8257 13.4244 21.7784 13.4342 21.904C13.4333 21.9183 13.4297 21.8999 13.435 21.9765C13.4386 22.0033 13.4413 22.0485 13.4439 22.0983C13.4759 22.0645 13.5053 22.028 13.5373 21.9949L13.475 21.5069L13.4724 21.5006L13.4626 21.423L13.4644 21.4265L13.4262 21.0958C13.4199 21.0105 13.4146 20.9444 13.4102 20.8918C13.9568 20.5827 14.043 20.096 14.6358 19.8189L15.1851 19.4802L16.0756 18.9591C16.7235 18.4439 17.9287 18.2406 18.2602 17.5991C19.7942 17.0341 21.4083 16.1875 22.7317 15.6093C23.2747 15.3152 24.2808 15.3793 24.5501 14.9131C25.206 15.1369 25.7811 14.5584 26.2068 14.7234C26.6627 14.5177 27.5755 14.652 27.7817 14.2465C28.1612 14.0835 28.2296 14.4668 28.4074 14.139C29.6063 13.8991 30.9999 13.8134 32.0754 13.7403C32.0922 13.8099 32.3482 13.85 32.7988 13.874L33.1552 13.9089C33.7303 14.0373 33.9942 13.9506 34.6981 14.1236C35.602 14.2716 36.1042 14.3892 37.0321 14.6503C37.3503 14.7217 37.9235 14.981 38.0648 14.9524L38.2906 15.0318C38.5883 15.1456 38.8887 15.2535 39.182 15.3793C39.4353 15.4941 39.6069 15.5512 39.7455 15.579L39.8548 15.6278C40.1152 15.7248 40.4334 15.8944 40.7267 16.044C40.7356 16.0727 40.7436 16.0995 40.764 16.1315C40.6512 16.5725 40.3659 16.6154 40.4112 17.0066C40.1615 17.0856 40.1686 17.3694 40.2352 17.4424L40.2068 17.5151L39.973 18.0955L39.6246 18.9633C39.6131 19.01 39.6069 19.0545 39.7126 19.0837L39.2167 20.3045L39.0994 20.5907L39.0114 20.8044L38.8647 21.1619C39.0745 21.4202 38.5928 21.3767 38.8016 21.635C38.5839 21.9514 38.6434 21.9604 38.5057 22.3437L38.415 22.5547C38.2017 22.8088 38.3155 23.2064 38.1164 23.2579C38.0657 23.5725 37.9635 23.8788 37.8346 24.2016L37.6169 24.7031L37.4009 25.1675C37.408 25.6936 37.1423 26.0301 36.9219 26.4722C36.7077 26.7201 36.9094 26.907 36.7272 27.1503L36.6943 27.2206C36.4668 27.7028 36.5388 27.8849 36.226 28.4596L36.1913 28.5288C36.1726 28.888 35.9398 28.9559 35.9167 29.3507C35.8624 29.3228 35.7798 29.3514 35.8829 29.421L35.4394 30.3345C35.6376 30.5474 35.1843 30.6338 35.3629 30.7344L35.3292 30.8051C34.9532 31.6443 34.7097 32.4606 34.468 33.2769L34.1924 33.8447L33.9516 34.3428C33.828 35.0398 33.4592 35.3969 33.4574 36.0451L33.2512 36.4736C33.1979 36.4513 33.1454 36.4326 33.133 36.5011C33.2521 36.5787 33.1286 36.7152 33.0824 36.8329L33.0486 36.9039C32.9988 37.2746 32.7917 37.6853 32.5917 38.0971L32.4575 38.386C32.3775 38.5553 32.5011 38.6684 32.3402 38.8602L32.1731 39.2219C32.1696 39.3493 31.9101 39.5509 32.0896 39.6247C31.751 40.1159 31.7616 40.7946 31.5501 41.047C31.5465 41.1734 31.2941 41.3819 31.4692 41.4504C31.159 41.8901 31.087 42.619 30.7929 43.2526C30.7573 43.4754 30.4551 43.797 30.5947 43.954L30.3849 44.4752L30.296 44.6989C30.1912 45.3656 30.0694 45.6594 29.8116 46.4116C29.7574 46.7315 29.7832 46.6658 29.6206 46.941C29.6348 47.2467 29.4348 47.6557 29.3184 48.0334C29.2988 48.126 29.2331 48.2447 29.3095 48.2883C29.1317 48.4407 29.1771 48.9194 28.9842 49.2845L28.9593 49.3604C28.9558 49.5101 28.7389 49.7865 28.8847 49.8488L28.7185 50.411L28.7167 50.4086C28.69 50.3549 28.6625 50.3076 28.6349 50.2561C28.6011 50.191 28.5665 50.1248 28.5309 50.0653C28.4723 49.9671 28.41 49.878 28.3443 49.815L28.3078 49.7443C28.0812 49.3016 27.9363 49.1136 27.7772 48.8445L27.6644 48.6342C27.5142 48.3694 27.4235 48.1974 27.3506 48.1654C27.1053 47.7268 26.9373 47.3988 26.764 47.2154C26.2645 46.3956 25.7517 45.7005 25.2398 44.8859C25.0789 44.5705 24.9154 44.3888 24.7527 44.1615L24.7118 44.0936L24.3857 43.5547C24.1368 43.232 24.0168 42.9904 23.6489 42.4318C23.4462 42.1511 23.2294 41.6509 23.0347 41.5131C23.192 41.7606 22.9441 41.2823 23.0347 41.5131L22.745 41.0442C22.6401 40.7448 21.6411 40.2912 22.5468 40.6895L21.9789 39.8074C21.4065 39.6104 17.5474 32.4847 17.0781 32.0401C17.3208 32.7833 20.8714 40.3313 21.091 41.0835C21.2474 41.3659 21.4029 41.6349 21.6011 41.9685C21.7496 42.2437 21.9575 42.7225 22.1184 42.9424C22.4073 43.4959 23.776 44.8173 24.0044 45.1932L22.8872 44.3139C23.0089 44.6098 23.2445 45.0634 23.4693 45.3377C23.6347 45.6834 23.8133 45.8278 23.9742 46.2226C24.1617 46.5909 24.3741 46.1888 24.575 46.4186C24.7438 46.6859 24.8567 47.9311 25.0416 48.0449L25.2104 48.3962C25.2975 48.5834 25.1705 47.3588 25.1447 47.481L25.4904 48.865C25.5322 48.9583 25.4362 48.9691 25.4593 49.052C25.5073 49.0279 25.5429 49.0816 25.5882 49.077C25.7144 49.5421 26.1312 50.1081 26.3854 50.5857C26.4716 50.6971 26.501 51.0302 26.62 50.9895L26.9427 51.7735L26.9987 51.9155C27.1622 52.0276 27.2413 52.4251 27.3568 52.6816C27.372 52.6924 27.3835 52.7147 27.3968 52.7307C27.4199 52.7468 27.4439 52.7621 27.4671 52.7771C27.6128 52.6486 27.9479 53.278 28.1603 53.2825C28.2954 53.2831 28.8224 53.3653 28.9744 53.4454C29.313 53.6219 29.114 53.0461 29.4464 53.2341C29.4579 53.2216 29.4686 53.2048 29.4837 53.1975C29.4766 53.1489 29.4748 53.1043 29.4846 53.0656C29.2348 53.1415 29.4535 53.0221 29.425 52.917C29.2828 52.9803 29.0473 53.6041 28.9744 53.4454L29.1895 52.8324C29.2366 52.917 29.2997 52.8735 29.3379 52.8171C29.3939 52.8331 29.3904 53.2397 29.4464 53.2341L29.4544 52.9908C29.4855 53.0638 29.5495 53.0249 29.6028 53.0256C29.6152 53.0899 29.5726 53.121 29.6019 53.1958C29.6774 53.1791 29.7512 53.1711 29.7797 53.3054C29.8996 53.2895 29.8943 53.9578 29.8712 53.8534C29.9245 53.8081 29.9112 52.9605 29.9405 52.9079L29.9592 52.9016L29.9885 52.9776C30.0232 52.997 30.0534 53.0302 30.081 53.0729C30.081 53.0736 30.0792 53.0736 30.0792 53.0747C30.0836 53.0775 30.0836 53.0826 30.0872 53.0855C30.0996 53.1049 30.1103 53.13 30.1218 53.153C30.1298 53.2128 30.1156 53.2866 30.1396 53.3357C30.1449 53.4579 30.1787 53.4186 30.2036 53.343C30.232 53.4186 30.2596 53.4952 30.288 53.5658L30.3565 53.7465L30.752 52.7137C30.7724 52.58 30.7831 52.5839 30.8506 52.4223L30.6542 53.2459C30.6889 53.0677 30.6382 52.9403 30.752 52.7137L30.8506 52.4223C31.0222 51.8299 31.1901 51.0547 31.4594 50.5154C31.4657 50.4548 31.511 50.3727 31.4461 50.3476L31.7003 49.6998C31.7501 49.4039 31.8416 49.0896 32.0105 48.7439L32.222 48.2447L32.3144 48.0327C32.2487 47.8267 32.4913 47.4925 32.5873 47.2244C32.8175 46.8429 32.7286 46.5846 32.9659 46.2049L33.0646 45.9946L33.2974 45.5027C33.197 45.2628 33.6521 44.8361 33.5543 44.5973C33.7729 44.4083 33.7827 44.1072 34.0049 43.6901L34.0751 43.5509C34.0813 43.3131 34.2324 43.0315 34.388 42.7506C34.3355 42.7061 34.2351 42.6758 34.268 42.6082C34.587 42.5459 34.5968 41.8445 34.7781 41.8131C34.8519 41.677 35.0412 41.8313 35.0839 41.6155L34.8439 41.4988L34.9541 41.291C35.1061 40.858 35.4198 40.064 35.7647 39.5989L35.6811 39.5578L35.8696 39.2129C35.8882 39.0688 36.1931 38.8609 36.0126 38.7593C36.1886 38.386 36.3273 38.3975 36.393 38.0732C36.4117 38.0286 36.425 37.9857 36.3459 37.9607C36.3993 37.8761 36.5077 37.9217 36.5459 37.7989C36.4775 37.6516 36.6277 37.4584 36.729 37.2763L36.7672 37.2078C36.8028 36.9673 36.8072 36.9564 36.9983 36.7963C37.0303 36.7089 37.1227 36.6108 37.0276 36.5467C37.2107 36.1846 37.5191 35.8017 37.5191 35.4735C37.6036 35.1574 37.64 35.2312 37.8311 34.9266C37.7573 34.7741 37.9111 34.5824 38.0133 34.4L38.1688 34.1264C38.4266 33.8151 38.3866 33.5523 38.5466 33.2564C38.743 32.893 38.7421 32.5596 39.038 32.179L39.1163 32.0419C39.1589 31.9316 39.294 31.8059 39.1767 31.7174L39.5669 31.0303L39.6442 30.8925C39.542 30.543 39.9997 30.4932 39.8966 30.222L39.9348 30.1528C40.2317 30.066 39.9899 29.5118 40.3383 29.2045C40.509 28.8829 40.7587 28.5487 40.7356 28.2527L40.7729 28.1831C40.94 27.9231 41.0582 27.6707 41.0502 27.4365L41.0885 27.3661C41.5248 27.332 41.1622 26.6334 41.6493 26.5659L41.5435 26.5157L41.7621 26.097L41.9817 25.6737C42.2234 25.4046 41.9443 25.092 42.3834 25.1505C42.2279 24.8121 42.4065 24.8282 42.4509 24.4849C42.5629 24.5329 42.6536 24.4215 42.5229 24.3432L43.018 23.3452L42.9051 23.2961C42.9593 23.0483 43.2331 23.1315 43.2642 22.8454C43.2588 22.6911 43.6064 22.4833 43.3584 22.3684L43.6348 21.7965C43.7539 21.3328 43.9619 21.1876 44.1858 20.653C44.2027 20.3571 44.2552 20.4713 44.272 20.1765C44.4614 20.2673 44.6791 19.8155 44.4765 19.7476C44.7422 19.6024 44.5547 19.4081 44.784 19.1042L44.9537 18.7485C44.9911 18.6873 45.0071 18.6291 45.0364 18.5686C45.3137 18.7656 45.6834 19.1453 45.8381 19.1345C46.0665 19.4249 46.7509 19.8955 47.0281 20.1496C47.3845 20.473 47.7365 20.8009 48.0787 21.1396L48.1178 21.0978L48.2022 21.1807C48.204 21.1831 48.2049 21.186 48.2067 21.1876C48.2182 21.2785 48.2858 21.3464 48.3711 21.4122C48.3826 21.4282 48.3951 21.4435 48.4058 21.4585C48.827 21.9588 48.8075 22.1341 49.0563 22.5039L49.0866 22.4878C49.3425 22.8436 49.4456 23.0138 49.5265 23.0904L49.5932 23.1938C49.9531 23.8057 49.9469 23.4743 50.1504 23.756C50.002 23.4824 50.1024 23.3006 49.9727 23.1538C49.9424 23.0459 49.8891 22.9396 49.8474 22.8317C50.1344 23.1624 50.4117 23.4949 50.657 23.6777L50.7335 23.7703L51.2632 24.4306C51.6525 24.8459 52.0657 25.6382 52.4026 25.8432L53.0203 26.7396C53.222 27.1051 53.4149 27.2913 53.606 27.5131C53.5269 27.5674 53.7073 27.8473 53.7997 27.8197C53.8877 28.0175 54.2886 28.691 54.4192 28.8606C54.4592 28.924 54.5001 28.98 54.5445 28.9274C54.661 29.1234 54.6201 29.1811 54.4734 29.1102C54.6112 29.3594 54.7623 29.3553 54.8894 29.7072L54.9578 29.6706L55.0156 29.7764C54.9471 29.8381 55.0307 29.986 55.116 30.1356C55.3738 30.5074 55.5622 31.2604 55.8333 31.3993C56.2528 32.3065 56.3639 32.5188 56.7309 33.253L56.7763 33.3654C56.8954 33.7664 57.0509 33.9864 57.2002 34.2402C57.146 34.2893 57.1398 34.3721 57.1993 34.4988C57.378 34.8278 57.4206 35.5219 57.6615 35.619L57.9299 36.5491C58.1281 37.2882 58.2943 38.0338 58.4214 38.785C58.4347 39.0123 58.5671 39.0294 58.5885 39.2459C58.592 39.7691 58.5431 40.0702 58.7031 40.5638L58.7111 40.6849C58.736 41.0041 58.7476 41.3293 58.76 41.6531L58.7653 41.7749C58.8418 42.1821 58.6542 42.9013 58.8773 43.1098L58.872 43.4743ZM34.1231 13.6871V13.5534C34.7239 13.5684 35.3238 13.6094 35.922 13.6752C37.6613 13.85 38.6079 13.9847 40.4041 14.7867C40.6227 14.8758 40.8289 14.989 41.0431 15.0861L40.9365 15.3499C40.9818 15.4718 40.9525 15.5585 40.9027 15.634C40.645 15.5122 40.3863 15.3952 40.125 15.2821L40.0121 15.2347C39.9002 15.1885 39.8673 15.2083 39.7739 15.177C39.462 15.0708 38.8896 14.7812 38.7403 14.8187C38.3937 14.6343 38.2373 14.6343 37.8186 14.5097C37.1956 14.3322 36.2659 14.0425 35.8127 14.0237C35.3061 13.9248 34.5835 13.7752 34.252 13.786C34.1 13.7539 33.9098 13.7215 33.7107 13.694C33.8378 13.7031 33.9729 13.7048 34.1231 13.6871ZM45.2586 17.8573C45.5341 18.0767 45.783 18.2942 45.9172 18.5215C45.9981 18.5856 46.0852 18.6765 46.1731 18.7735C45.8407 18.524 45.5252 18.2978 45.2142 18.0847C45.231 18.0081 45.2497 17.9322 45.2586 17.8573ZM59.8665 46.0266C59.8025 45.0499 60.2469 44.1319 59.7937 43.4903C59.7723 43.5885 59.7874 43.7392 59.6879 43.74L59.6914 43.3647C59.7705 43.3372 59.8932 43.364 59.8959 43.2407C59.8416 42.5689 59.9838 41.5583 59.7252 41.1082C59.7714 40.8305 59.8203 40.6807 59.6648 40.3564C59.7226 39.9783 59.7154 39.964 59.5901 39.6132C59.6452 39.3841 59.623 39.2431 59.5475 38.9883C59.4826 38.7826 59.4017 38.5542 59.3724 38.2308C59.1991 37.3665 58.9715 36.5164 58.7102 35.6786C58.5049 34.809 58.1521 34.3554 57.8757 33.5861L57.8286 33.4705C57.5388 32.9748 57.6206 32.8063 57.3175 32.4687C57.0438 31.9402 57.0704 32.0064 56.8518 31.4529L56.7034 31.5232C56.6785 31.4278 56.7034 31.3638 56.7985 31.3415C56.7123 31.1204 56.5976 31.133 56.507 30.9307L56.2261 30.3772C56.1683 30.2666 56.0999 30.2766 56.0403 30.1945C56.0999 30.0135 55.6262 29.1617 55.4467 29.1102C55.3862 28.9532 55.4244 28.8515 55.2644 28.644L55.1987 28.6831C55.0049 28.1957 55.0298 28.3384 54.6876 27.8375C54.3792 27.3481 54.0655 26.8652 53.7366 26.3911C53.6051 26.2637 53.4353 25.8209 53.3234 25.9268C52.7563 25.123 52.0782 24.2353 51.6978 23.913L51.6205 23.8176C51.4027 23.6171 51.105 23.0813 50.9334 23.1109L50.8534 23.018C50.5726 22.7649 50.6935 22.6741 50.4073 22.4255C50.1193 22.2108 49.7416 21.7331 49.4741 21.6183L49.3887 21.5309C49.3114 21.2824 49.0821 21.2013 48.867 21.0122L48.5444 20.7083L48.5044 20.6443C48.4297 20.3428 48.2404 20.2798 48.052 19.8697C47.7365 19.4642 47.3126 18.7032 47.0077 18.5581L46.678 18.155C46.3509 17.7648 45.9981 17.3906 45.6346 17.0233L45.6505 16.9912L46.1651 15.9282C46.2265 15.3712 46.5278 15.3472 46.6264 14.6771L46.8708 14.1859L46.9064 14.1156C46.8015 13.9196 47.1997 13.8107 47.0575 13.5015C47.3641 13.5924 47.285 13.181 47.4352 13.0685C47.4717 12.9982 47.3721 12.94 47.3766 12.8742L47.6627 12.3183C47.7507 12.0448 48.0965 11.7558 47.9276 11.501C48.0102 11.5324 48.0902 11.5587 48.0973 11.4895C48.1498 11.1845 48.316 10.7463 48.5915 10.2676L48.6662 10.1312C48.7542 9.90495 49.035 9.67592 48.8706 9.46044L48.9088 9.39254C49.2003 9.28222 49.1541 8.7019 49.4856 8.38545L49.5247 8.31791C49.7034 8.07462 49.8171 7.83125 49.7816 7.58797C49.8225 7.52282 49.7185 7.45599 49.7247 7.38853C50.4286 7.65373 49.8758 6.89626 50.3042 6.73514C50.3442 6.67 50.4642 6.71455 50.5228 6.67561C50.4251 6.60663 50.3975 6.53811 50.4668 6.4751C50.5504 6.39009 50.569 6.21017 50.769 6.28778C51.0525 6.41067 50.9859 6.51583 51.0988 6.62999C51.1387 6.48375 51.3672 6.60147 51.4987 6.58364C51.0348 6.20776 51.2587 6.39009 51.528 6.25927C51.0819 5.9463 51.0667 6.03194 50.785 5.6925C50.9237 5.56685 50.9254 5.43594 50.8579 5.29844C51.0392 5.39557 51.1512 5.21841 50.9841 5.10702C51.3005 4.93226 51.0641 4.72721 51.5609 4.81847C50.857 4.56957 51.3343 4.26569 51.544 4.28547C52.1413 4.25419 51.4845 4.72828 51.872 4.64612C51.928 4.47796 52.0604 4.42093 52.2284 4.41914C53.0772 4.72552 53.3305 4.1518 52.4408 3.58752C52.4621 3.50189 52.3581 3.40127 52.2551 3.29968C51.8587 2.99589 51.6818 2.47101 51.3334 2.37922L51.1947 2.29278C50.7672 2.08514 49.6109 1.15925 48.9897 0.930222C48.6111 0.590695 47.2619 -0.132913 46.8779 0.0212555C46.6646 0.160274 46.3082 0.056893 46.0505 0.125511C46.1474 0.205714 46.3207 0.291268 46.2816 0.364342C45.8043 0.4793 46.6798 0.943586 46.1136 1.26083C45.9447 1.48006 46.1758 1.70997 45.9083 1.92563L45.8656 1.9996C45.7536 2.19387 45.575 2.39081 45.711 2.58953C45.6799 2.92282 45.247 2.84975 45.4221 3.10372C45.4755 3.39851 45.2933 3.6909 45.1199 3.98578L44.9635 4.28092L44.808 4.57688C44.7227 5.23543 44.408 5.89649 44.1512 6.55968L43.9343 7.00249L43.7592 7.3732C43.8268 7.71816 43.4704 8.28831 43.2402 8.8418C43.1726 8.96648 43.1664 9.0858 43.2393 9.1972C43.0269 9.26858 43.0873 9.7883 42.8429 10.0849L42.7451 10.307L42.3923 11.1205C42.3167 11.3398 42.115 11.5748 42.2696 11.7665C41.9817 12.2334 41.7995 13.0107 41.4688 13.6832C41.3986 13.7796 41.3906 13.8688 41.4031 13.9544C40.9365 13.5899 40.5045 13.5461 39.8371 13.1764C39.3829 13.0702 38.6425 12.5954 38.3519 12.7959C37.9049 12.6686 37.4542 12.5572 36.9992 12.4642C36.2277 12.3037 35.4492 12.1979 34.6697 12.122C34.2751 12.1036 33.7685 11.9814 33.5738 12.1836C33.533 11.8324 33.3454 12.3591 33.029 12.1659C32.3927 12.0465 31.4932 12.1266 30.3254 12.2316L29.2562 12.3207C27.6857 12.4652 27.1524 12.6887 26.2583 12.8885L25.8761 12.9553L25.694 12.9884L25.6024 13.0034L25.582 13.0068C25.582 13.0062 25.582 13.0051 25.582 13.0044L25.6255 12.9926L25.6193 12.9937L25.606 12.9954L25.5811 12.9989L25.4424 13.0229C24.8896 13.1148 24.3448 13.2245 23.8053 13.3483L23.6693 13.3793C23.3129 13.465 22.8819 13.5071 22.7876 13.7796L22.5237 13.8517C22.0349 13.5415 21.9344 14.1939 21.3443 14.2037L21.0839 14.2869C20.2271 14.6914 18.8379 14.8267 18.3607 15.5021C18.4442 15.6689 18.5597 15.6563 18.6495 15.7812C18.4042 15.8853 18.2655 15.3952 17.9865 15.6618C17.7056 15.9104 16.8897 15.8917 16.967 16.3302C16.8071 16.396 16.68 16.1983 16.5084 16.34C15.2979 16.8203 14.8633 17.5618 13.6297 17.8824C13.691 17.9859 13.7443 18.0864 13.6235 18.115L12.6965 18.6862C12.5312 18.5062 12.4956 18.6685 12.4663 18.8324L12.1232 19.0569C11.5695 18.862 11.0531 19.6863 10.5261 19.9161L10.6567 20.0737L10.4336 20.237C10.0657 20.5106 9.69774 20.7912 9.33512 21.0808C8.95472 21.5504 7.92907 21.8943 7.99129 22.4951L7.8873 22.5884C7.04474 22.6831 6.42527 23.8565 5.70891 24.4403C5.23697 25.4527 3.83093 25.7798 4.19444 26.9304C4.30109 26.8652 4.37397 26.7058 4.54995 26.8225L4.28953 27.1709C4.12866 27.103 3.92958 26.9338 3.83892 27.0462C3.49319 27.7501 2.4631 28.5487 2.63641 29.2846C2.34489 29.5049 2.12536 29.594 2.19291 30.0824C1.80718 30.3933 1.79296 30.4183 1.77873 30.9064C1.20103 31.2381 1.55032 31.7958 1.10238 32.4902C0.705982 33.5238 0.393139 34.6165 0.175389 35.7509C0.0776232 36.0305 0.0358428 36.2936 0.0118459 36.5449C-0.0050409 36.8165 -0.00414779 37.1294 0.0162941 37.3327L0.0518473 37.5938L0.0678392 37.7257L0.0705082 37.7595L0.0687289 37.8486L0.0696185 37.8584L0.0713978 37.8761L0.0785041 37.9503C0.0962797 38.1508 0.0998378 38.3565 0.0705082 38.5827L0.0616226 38.7202C0.239378 39.3538 -0.125912 39.483 0.225154 39.964C0.314032 40.6254 0.306038 40.5443 0.208273 41.2099L0.649992 41.1995C0.602887 41.308 0.466019 41.3641 0.209163 41.3491C0.162057 41.6126 0.459789 41.6475 0.434015 41.896L0.457124 42.5912C0.460679 42.7304 0.640219 42.7454 0.686435 42.8551C0.329147 43.0253 0.396687 44.1284 0.778861 44.2426C0.727312 44.4358 0.493564 44.5391 0.61266 44.8218L0.829527 44.7978C0.670436 45.408 0.784199 45.2416 0.961954 45.9124C1.05261 46.5641 1.15837 47.2147 1.28991 47.8643C1.44367 48.0432 1.19215 48.6405 1.64276 48.5149C1.87917 49.617 2.19824 50.8823 2.63641 51.3397L2.67996 51.4741C2.89948 51.7574 2.78572 52.5435 3.25499 52.4822L3.30744 52.6148C3.60784 52.965 3.12879 53.137 3.4372 53.4882C3.80782 53.7806 3.93135 54.5033 4.39885 54.6306L4.46107 54.7599C4.22554 55.1724 4.63971 55.259 4.84946 55.5254C5.03077 55.8612 5.21209 56.1982 5.40851 56.5279C5.57826 57.0002 5.89734 57.1767 6.17552 57.4041L6.25461 57.5234C7.77442 59.5365 8.94406 60.594 10.4701 61.9712C10.7643 62.4407 11.1224 62.2643 11.4344 62.5887C11.5962 62.8943 12.1001 62.8943 12.5214 63.4798C12.8156 63.713 13.1204 63.9289 13.4235 64.1482L13.5399 64.2283C13.6546 64.3083 13.7603 64.2025 13.8732 64.238C14.2438 64.3602 14.6731 65.04 15.018 64.7699C15.2473 65.2381 15.5068 65.1389 15.9672 65.3353C16.6569 65.5998 17.4932 66.3963 18.126 66.2396C18.6788 66.4231 19.3561 66.9543 19.8227 66.7708C20.244 67.1512 21.0545 67.7118 21.546 67.4329C22.2446 67.6717 23.1441 67.301 23.7289 67.3598L23.8586 67.3855C24.0853 67.7946 24.3332 67.4009 24.7394 67.7169C25.2816 67.7003 26.1072 68.136 26.4681 67.7883L26.9925 67.8437C27.7346 67.9133 28.4785 67.9568 29.2215 67.9791L29.4837 67.9854C29.9672 67.9436 30.5325 67.9923 31.0728 67.9996C31.3457 68.0024 31.6203 67.9905 31.8665 67.9568C32.0976 67.9192 32.3002 67.8569 32.4709 67.7545C32.7757 68.046 32.9544 67.7671 33.2574 67.693C33.2637 67.7814 33.3748 67.8625 33.3854 67.6815C34.0511 67.9419 34.3969 67.5826 35.1799 67.6477C35.5949 67.4969 36.3859 67.6832 36.5557 67.2975L37.8177 67.0869C38.5314 66.9578 39.2433 66.8098 39.9526 66.6469C40.3081 66.5487 40.7889 66.5282 40.916 66.2591C41.036 66.6236 41.0813 66.006 41.412 66.1293C42.0137 66.0802 42.8127 65.7683 43.8685 65.3788L44.8391 65.0313C46.2594 64.4991 46.7357 64.15 47.5116 63.7329C47.7445 63.6215 47.9756 63.5056 48.2049 63.3852L48.3204 63.3256C48.779 63.0875 49.2305 62.8328 49.6767 62.5682L49.7878 62.5003C50.082 62.3231 50.4446 62.1529 50.4855 61.9033L50.7015 61.7623C51.1619 61.8489 51.1565 61.2983 51.6551 61.0922L51.8631 60.9373C52.5368 60.333 53.6531 59.6932 53.9411 58.9813C53.8531 58.8894 53.7615 58.9448 53.6735 58.8849C53.8557 58.7084 54.0326 59.0266 54.2175 58.7084C54.4094 58.4072 55.0405 58.0686 54.9187 57.7719C55.0334 57.6532 55.1551 57.7434 55.2653 57.5597C56.1035 56.6525 56.3017 55.8932 57.0802 55.0362C57.0216 54.9917 56.9691 54.9443 57.0438 54.8615C57.2215 54.5684 57.3877 54.2669 57.5486 53.9641C57.6881 54.0086 57.6819 53.8722 57.6677 53.735L57.8392 53.3901C58.2214 53.2369 58.3618 52.3548 58.6134 51.9002L58.5067 51.8573L58.5956 51.6168C58.7485 51.2176 58.8809 50.8102 59.0053 50.4023C59.1048 49.8522 59.5235 49.0387 59.3439 48.644L59.3724 48.5201C59.7483 47.9881 59.7208 46.8161 59.8665 46.0266Z" fill="#2B2847"/>
</svg>
