<svg width="100" height="110" viewBox="0 0 100 110" fill="none" xmlns="http://www.w3.org/2000/svg">
<path d="M0 2.85061e-05V89.7676H72.7429V2.85061e-05H0Z" fill="#EFEFEF"/>
<path d="M4.56073 34.5808V37.6221H66.3755V34.5808H4.56073Z" fill="#BBBCBD"/>
<path d="M4.56073 25.7673V28.8086H62.7507V25.7673H4.56073Z" fill="#BBBCBD"/>
<path d="M4.56073 16.9538V19.9971H66.3755V16.9538H4.56073Z" fill="#BBBCBD"/>
<path d="M58.385 8.14035H4.56073V11.1836H58.385V8.14035Z" fill="#BBBCBD"/>
<path d="M4.56073 46.4053H62.7507V43.362H4.56073V46.4053Z" fill="#BBBCBD"/>
<path d="M4.56073 55.1865H66.3755V52.1453H4.56073V55.1865Z" fill="#BBBCBD"/>
<path d="M4.56073 63.9697H60.9104V60.9265H4.56073V63.9697Z" fill="#BBBCBD"/>
<path d="M4.56073 72.7529H66.3755V69.7097H4.56073V72.7529Z" fill="#BBBCBD"/>
<path d="M4.56073 81.5342H66.3755V78.4909H4.56073V81.5342Z" fill="#BBBCBD"/>
<path d="M74.1233 15.7578H22.0158V105.527H94.7587V36.3952L74.1233 15.7578" fill="white"/>
<path d="M26.5764 50.3386V53.3799H88.3892V50.3386H26.5764Z" fill="#BBBCBD"/>
<path d="M26.5764 41.5241V44.5674H88.3892V41.5241H26.5764Z" fill="#BBBCBD"/>
<path d="M26.5764 32.7107V35.7539H88.3892V32.7107H26.5764Z" fill="#BBBCBD"/>
<path d="M80.4005 23.8982H29.3087V26.9414H80.4005V23.8982" fill="#BBBCBD"/>
<path d="M30.2271 62.166H88.3891V59.1228H30.2271V62.166" fill="#BBBCBD"/>
<path d="M26.5764 70.9453H88.3892V67.9021H26.5764V70.9453Z" fill="#BBBCBD"/>
<path d="M26.5764 79.7256H88.3892V76.6843H26.5764V79.7256Z" fill="#BBBCBD"/>
<path d="M26.5764 88.5098H88.3892V85.4665H26.5764V88.5098Z" fill="#BBBCBD"/>
<path d="M26.5764 97.293H88.3892V94.2497H26.5764V97.293Z" fill="#BBBCBD"/>
<path d="M74.1231 36.3936H94.7585L74.1231 15.7561V36.3936Z" fill="white"/>
<path d="M94.7585 36.3938H74.1231L94.7585 57.0293V36.3938Z" fill="#A4A6A9"/>
<path d="M36.9546 60.0753H69.0839V71.9834H38.0918L36.9546 60.0753Z" fill="#BBBCBD"/>
<path d="M52.4082 73.9307L44.3241 60.1564L46.4293 58.9236L52.231 68.8101L59.5284 54.1197L61.7112 55.2052L52.4082 73.9307" fill="#EC1D27"/>
<path d="M48.9441 78.1355C42.0749 75.634 38.5357 68.0359 41.0372 61.1667C43.5388 54.2975 51.1369 50.7563 58.0061 53.2578C64.8753 55.7613 68.4184 63.3595 65.9149 70.2267C63.4114 77.0979 55.8133 80.639 48.9441 78.1355ZM65.0704 53.1224C58.1256 46.7192 47.303 47.1574 40.8998 54.1043C34.4967 61.0492 34.9368 71.8698 41.8817 78.2729C48.3267 84.212 58.1037 84.2618 64.5965 78.6932L70.906 84.5088L69.4521 86.0841L94.3596 109.048L100 102.932L75.0924 79.9678L73.6405 81.5432L67.331 75.7276C72.3559 68.8046 71.5114 59.0635 65.0704 53.1224" fill="#2B2847"/>
</svg>
