<svg width="124" height="168" viewBox="0 0 124 168" fill="none" xmlns="http://www.w3.org/2000/svg">
<path d="M84.4109 18.3833C84.4109 18.3833 42.6832 22.2013 31.1187 9.02833C31.1187 9.02833 74.1999 -14.3845 92.8798 16.9904C92.8798 16.9904 107.489 21.2875 104.538 39.3076C104.538 39.3076 101.297 34.7533 96.5825 35.2922C91.8651 35.8333 84.4109 18.3833 84.4109 18.3833Z" fill="#543F3B"/>
<path d="M99.7253 60.7913C99.7253 79.3825 83.6258 95.4863 61.9219 95.4863C40.2111 95.4863 22.6198 80.4227 22.6198 61.837C22.6198 13.2139 39.4648 12.065 61.1723 12.065C82.8829 12.065 99.7253 17.0995 99.7253 60.7913Z" fill="#FDE3AE"/>
<path d="M30.0628 69.6666C30.0628 72.6352 27.6521 75.0537 24.6871 75.0537C21.7177 75.0537 19.307 72.6352 19.307 69.6666C19.307 66.6968 21.7177 64.286 24.6871 64.286C27.6521 64.286 30.0628 66.6968 30.0628 69.6666Z" fill="#FDE3AE"/>
<path d="M93.7714 69.6666C93.7714 72.6352 96.18 75.0537 99.1531 75.0537C102.127 75.0537 104.538 72.6352 104.538 69.6666C104.538 66.6968 102.127 64.286 99.1531 64.286C96.18 64.286 93.7714 66.6968 93.7714 69.6666Z" fill="#FDE3AE"/>
<path d="M55.3051 93.9662V111.111H67.0385V93.9662H55.3051Z" fill="#FDE3AE"/>
<path d="M63.8116 6.79229C35.2739 3.60856 27.7193 14.4406 25.8069 26.3105C25.8069 26.3105 30.0368 35.9238 61.4984 35.9238C92.9598 35.9238 95.6977 26.3105 95.6977 26.3105C89.5044 10.8898 73.4172 7.86573 63.8116 6.79229Z" fill="#543F3B"/>
<path d="M92.8477 17.8682C92.8477 17.8682 62.9355 -4.37251 23.1276 11.8212C23.1276 11.8212 44.143 22.2196 50.2227 21.0774C56.3035 19.9263 94.1496 17.8293 92.8477 17.8682Z" fill="#543F3B"/>
<path d="M99.3018 64.624C99.3018 64.624 107.689 31.0612 95.6978 26.3094C93.6518 25.4955 89.5355 31.1521 89.5355 31.1521C89.5355 31.1521 89.0675 44.4837 99.3018 64.624Z" fill="#543F3B"/>
<path d="M22.8178 64.624C22.8178 64.624 14.2929 30.459 26.2789 25.7073C28.33 24.8955 32.588 31.1521 32.588 31.1521C32.588 31.1521 33.0572 44.4837 22.8178 64.624Z" fill="#543F3B"/>
<path d="M31.2185 29.3252C31.2185 29.3252 23.5868 27.5986 19.8801 19.5944C19.8801 19.5944 25.1042 16.5559 36.6678 12.0647C43.4999 9.40775 31.2185 29.3252 31.2185 29.3252Z" fill="#543F3B"/>
<path d="M92.3975 27.1918C88.3821 32.05 38.734 38.8932 21.1241 20.5704C21.1241 20.5704 62.0539 30.411 86.8118 23.295C91.8741 21.8379 94.8959 24.17 92.3975 27.1918Z" fill="#756562"/>
<path d="M115.499 118.162C114.431 117.135 92.2067 109.85 92.2067 109.85C87.2331 114.888 60.6677 111.74 60.6677 111.74V111.861C61.4605 111.828 61.9196 111.798 61.9196 111.798L61.923 167.533C85.3358 167.533 106.713 158.869 123.068 144.597C121.926 133.09 119.737 122.235 115.499 118.162Z" fill="#543F3B"/>
<path d="M8.34242 118.162C9.41109 117.135 31.6344 109.85 31.6344 109.85C36.6093 114.888 63.1728 111.74 63.1728 111.74V111.861C62.3811 111.828 61.9231 111.798 61.9231 111.798L61.9197 167.533C38.5066 167.533 17.1281 158.869 0.772766 144.597C1.91718 133.09 4.10598 122.235 8.34242 118.162Z" fill="#543F3B"/>
<path d="M61.9231 143.017C61.9231 143.017 51.2854 143.524 50.5598 143.017C49.8363 142.508 46.4866 126.094 46.5689 123.548C46.6568 121.005 47.3412 112.481 50.5598 112.481C53.7791 112.481 77.7675 106.119 81.0399 111.206C84.3157 116.297 73.1199 149.503 61.9231 143.017Z" fill="#F0F0EF"/>
<path d="M61.923 109.85V122.574H58.5275C58.5275 122.574 55.9839 118.671 54.288 113.585C54.288 113.585 57.7667 110.19 61.923 109.85Z" fill="#543F3B"/>
<path d="M61.9232 109.85V122.574H65.3131C65.3131 122.574 67.8604 118.671 69.557 113.585C69.557 113.585 66.0772 110.19 61.9232 109.85Z" fill="#543F3B"/>
<path d="M55.3052 100.366L39.1983 107.021L51.491 121.386L61.923 109.85C61.923 109.85 55.5043 107.418 55.3052 100.366Z" fill="white"/>
<path d="M67.0386 100.489L84.6484 107.021L72.2706 121.386L61.9232 109.85C61.9232 109.85 66.9765 107.667 67.0386 100.489Z" fill="white"/>
<path d="M58.5275 122.574C54.9845 132.921 54.288 150.141 54.288 150.141L61.923 164.474V122.574H58.5275Z" fill="#543F3B"/>
<path d="M65.3131 122.574H61.9232V164.474L70.8578 150.699C70.8578 150.699 70.4297 135.287 65.3131 122.574Z" fill="#543F3B"/>
<path d="M78.5737 104.768L92.2069 109.85L84.6484 121.386L89.4201 128.255L61.9232 164.474L78.5737 104.768Z" fill="#756562"/>
<path d="M44.5481 104.809L30.9161 109.89L38.475 121.425L33.7036 128.295L61.2 164.512L44.5481 104.809Z" fill="#756562"/>
<path d="M109.499 63.5034C109.499 56.7833 104.724 51.1743 98.3791 49.8902V77.1133C104.724 75.8303 109.499 70.2235 109.499 63.5034Z" fill="#2B2847"/>
<path d="M95.6145 49.6135C94.6686 49.6135 93.7416 49.7122 92.8478 49.8896V77.1127C93.7416 77.2923 94.6686 77.3877 95.6145 77.3877C96.5594 77.3877 97.4864 77.2923 98.3791 77.1127V49.8896C97.4864 49.7122 96.5594 49.6135 95.6145 49.6135Z" fill="#2B2847"/>
<path d="M12.0049 63.5034C12.0049 56.7833 16.7807 51.1743 23.1276 49.8902V77.1133C16.7807 75.8303 12.0049 70.2235 12.0049 63.5034Z" fill="#2B2847"/>
<path d="M25.8912 49.6135C26.8369 49.6135 27.7625 49.7122 28.6571 49.8896V77.1127C27.7625 77.2923 26.8369 77.3877 25.8912 77.3877C24.9447 77.3877 24.0191 77.2923 23.1276 77.1127V49.8896C24.0191 49.7122 24.9447 49.6135 25.8912 49.6135Z" fill="#2B2847"/>
<path d="M68.0721 91.2676V86.7564C95.2387 86.7564 99.5546 68.6576 99.7276 67.8858L104.14 68.834C104.092 69.0569 99.0212 91.2676 68.0721 91.2676Z" fill="#2B2847"/>
<path d="M72.7817 89.0118C72.7817 91.3284 70.902 93.208 68.5888 93.208H61.383C59.0664 93.208 57.189 91.3284 57.189 89.0118C57.189 86.6964 59.0664 84.8178 61.383 84.8178H68.5888C70.902 84.8178 72.7817 86.6964 72.7817 89.0118Z" fill="#2B2847"/>
<path d="M102.578 60.2949L98.2194 59.1217C99.1842 55.531 99.6744 51.8327 99.6744 48.1244C99.6744 25.7418 82.2154 7.53101 60.7521 7.53101C39.2929 7.53101 21.8316 25.7418 21.8316 48.1244L21.9074 60.2417L17.3946 60.275L17.3179 48.1388C17.3179 23.2534 36.803 3.01657 60.7521 3.01657C84.7038 3.01657 104.188 23.2534 104.188 48.1244C104.188 52.2275 103.647 56.3216 102.578 60.2949Z" fill="#2B2847"/>
</svg>
