<svg width="117" height="108" viewBox="0 0 117 108" fill="none" xmlns="http://www.w3.org/2000/svg">
<path d="M11.1374 70.6616L12.8225 66.8989V56.6858C12.8225 53.2634 13.9162 49.9285 15.9454 47.1701L26.9788 32.1695L39.5875 23.7661L42.8015 52.3L40.6942 68.2083L34.5897 81.2783L11.1374 70.6616Z" fill="#FDE3AE"/>
<path d="M107.054 0.000335693H33.4848C28.7382 0.000335693 24.8583 3.88403 24.8583 8.62695V58.9838C24.8583 63.7286 28.7382 67.6104 33.4848 67.6104H107.054C111.799 67.6104 115.683 63.7286 115.683 58.9838V8.62695C115.683 3.88403 111.799 0.000335693 107.054 0.000335693Z" fill="#2B2847"/>
<path d="M31.5601 6.32671V61.2852H106.173V6.32671H31.5601Z" fill="white"/>
<path d="M114.065 33.805C114.065 35.5757 112.631 37.0098 110.86 37.0098C109.091 37.0098 107.655 35.5757 107.655 33.805C107.655 32.0362 109.091 30.6022 110.86 30.6022C112.631 30.6022 114.065 32.0362 114.065 33.805Z" fill="white"/>
<path d="M31.2813 33.8046C31.2813 35.2349 30.1207 36.3955 28.6904 36.3955C27.2619 36.3955 26.1013 35.2349 26.1013 33.8046C26.1013 32.3743 27.2619 31.2155 28.6904 31.2155C30.1207 31.2155 31.2813 32.3743 31.2813 33.8046Z" fill="#8F9295"/>
<path d="M71.0397 19.2695V41.7305H100.998V19.2695H71.0397Z" fill="#BBBCBD"/>
<path d="M38.6874 49.8657V58.6895H97.5723V49.8657H38.6874Z" fill="#BBBCBD"/>
<path d="M81.158 40.4336L74.6797 21.6479L76.5602 20.9988L81.5077 35.3354L92.1672 14.2693L93.9435 15.1677L81.158 40.4336Z" fill="#EB3140"/>
<path d="M51.0026 11.9502V14.2695H62.9418V11.9502H51.0026Z" fill="#BBBCBD"/>
<path d="M51.0026 18.4648H62.9418V16.1455H51.0026V18.4648Z" fill="#BBBCBD"/>
<path d="M51.0026 20.3408V22.6602H62.9418V20.3408H51.0026Z" fill="#BBBCBD"/>
<path d="M51.0026 26.8584H62.9418V24.539H51.0026V26.8584Z" fill="#BBBCBD"/>
<path d="M37.0452 11.9497V27.1865H48.6942V11.9497H37.0452Z" fill="white"/>
<path d="M48.5566 23.3661C48.2608 22.7635 47.9335 22.1051 47.9 22.0828C47.8572 22.0549 46.2893 21.5787 45.2849 21.2737C44.9705 21.1788 44.7102 21.1007 44.5707 21.0598L44.314 20.3009L44.2917 20.3195V19.5774C44.3661 19.5216 44.4349 19.4583 44.4907 19.3821C44.5613 19.2835 44.6172 19.17 44.6506 19.0454C44.7027 18.8613 44.6804 18.5711 44.818 18.426C44.9426 18.2921 45.071 18.2401 45.1603 18.056C45.3146 17.7379 45.3649 17.3566 45.3463 17.0069C45.3407 16.9083 45.2886 16.7428 45.1621 16.8376C45.1026 16.8804 45.1324 16.9865 45.0784 17.0218C45.0766 17.0237 45.0747 17.0236 45.0728 17.0236C45.1193 16.8674 45.1677 16.7038 45.1826 16.6294C45.2589 16.2313 45.2421 16.0565 45.2588 15.8872C45.3258 15.2864 45.3593 14.7117 44.9892 14.2095C44.593 13.6701 44.0052 13.3539 43.6928 13.3949C43.676 13.3967 43.464 13.4172 43.49 13.4414C43.3784 13.3409 43.1813 13.3334 43.0436 13.2999C42.3071 13.1232 41.3771 13.5827 40.8433 14.07C40.2797 14.5852 40.3634 15.2511 40.4266 15.8872C40.449 16.1085 40.4471 16.3559 40.5103 16.568C40.5457 16.6926 40.5606 16.7986 40.5643 16.9084C40.5568 16.8805 40.5475 16.8544 40.5252 16.8376C40.3969 16.7428 40.3448 16.9083 40.3411 17.0069C40.3225 17.3566 40.3709 17.7379 40.5271 18.056C40.6164 18.2401 40.7428 18.2921 40.8674 18.426C41.0069 18.5711 40.9828 18.8613 41.0367 19.0454C41.0702 19.17 41.1241 19.2835 41.1967 19.3821C41.2729 19.4881 41.3734 19.5643 41.4794 19.6387V20.3251L41.4534 20.3009L41.1967 21.0598C41.1278 21.0784 41.0348 21.1082 40.9177 21.1435C40.8842 21.1528 40.8451 21.1658 40.8061 21.1769C40.767 21.1881 40.7261 21.2012 40.6814 21.2142C40.6182 21.2328 40.5513 21.2532 40.4825 21.2737C39.4762 21.5787 37.9082 22.0549 37.8673 22.0828C37.832 22.107 37.4544 22.8695 37.1419 23.5056C37.0787 23.6395 37.0452 23.7828 37.0452 23.9297V27.1865H42.7274H42.8093H42.8111H43.0027H48.6942V23.9669C48.6942 23.7586 48.6477 23.554 48.5566 23.3661Z" fill="#A4A6A9"/>
<path d="M37.5118 29.5816V32.8887H63.9476V29.5816H37.5118Z" fill="#BBBCBD"/>
<path d="M37.5118 35.0318V38.3389H63.9476V35.0318H37.5118Z" fill="#BBBCBD"/>
<path d="M37.7857 41.1324V44.4395H64.2215V41.1324H37.7857Z" fill="#BBBCBD"/>
<path d="M46.0248 49.0172C46.0211 49.0507 46.0211 49.0823 46.0211 49.1195C46.0211 49.2181 46.0174 49.3222 46.0025 49.4245C45.9374 49.9025 45.757 50.3545 45.4817 50.7525C45.4482 50.8028 45.411 50.853 45.3757 50.8995C44.8009 51.6509 43.8784 52.1884 42.8015 52.3019H33.7155L30.2969 66.2368L31.2808 71.5452L34.5878 70.883L25.208 74.8652L18.354 66.6776L22.5538 44.1162H30.2969L38.9123 45.5521L39.9074 45.7195L44.8735 46.5472C44.987 46.6513 46.0136 47.6241 46.0248 49.0172Z" fill="#FDE3AE"/>
<path d="M8.61914 73.0937L11.1375 67.6105L37.3761 81.2776L35.1646 85.2598L8.61914 73.0937Z" fill="white"/>
<path d="M0 84.4552L7.73564 71.5432L37.3761 85.2586L30.0553 101.323L0 84.4552Z" fill="#2B2847"/>
<path d="M46.0247 49.0171C46.021 49.0506 46.021 49.0822 46.021 49.1194C46.0172 49.1789 46.0136 49.2385 46.0061 49.3017C45.9485 49.763 45.7959 50.2019 45.5634 50.5869C44.665 50.5107 43.7127 50.4028 43.2849 50.2651C39.0014 48.8813 39.6487 46.3815 39.9073 45.7194L44.8734 46.5471C44.9868 46.6512 46.0135 47.624 46.0247 49.0171Z" fill="#EFD9C4"/>
<path d="M110.525 86.887C110.376 86.9949 109.829 86.9354 109.654 86.9484L107.971 87.0618C106.264 87.179 106.546 87.8114 104.842 87.9249C100.693 88.2132 96.5005 87.8505 92.3584 88.135L87.7717 88.4457C87.502 88.4661 86.2893 88.721 86.0977 88.5275C85.988 88.4252 85.9954 87.8654 85.9638 87.7203C85.9322 87.5417 85.8187 86.9744 85.6625 86.2881C85.3928 85.1498 85.0171 83.6693 84.725 83.022C84.5111 82.557 79.0745 74.7024 78.8885 73.5585C78.6746 72.1747 78.6969 70.6997 78.5964 69.2917L78.1947 63.4123C78.1668 62.9752 78.0961 62.5102 78.1036 62.0694C78.1426 60.7358 78.6374 59.3446 79.7552 58.6731C80.449 58.2546 81.6133 58.0593 82.3554 58.5894C82.9413 59.0172 83.1218 59.8747 83.2966 60.5405C83.5421 61.4966 83.5997 62.4972 83.6388 63.4886C83.6816 64.7608 84.0685 65.237 84.3345 65.0007C84.7121 64.6845 84.4293 63.5537 84.4051 63.1501L82.5452 36.0707C82.4949 35.3026 82.3666 34.4916 82.387 33.7216C82.3963 33.4296 82.5303 33.1618 82.7219 32.9255C82.7702 32.8623 82.8223 32.7991 82.88 32.7433C82.8855 32.734 82.8967 32.7265 82.9041 32.7172C83.0306 32.5926 83.1701 32.4624 83.3022 32.3564C84.5223 31.3446 86.2409 31.2181 87.6117 32.0234C87.7642 32.109 87.9112 32.2038 88.0451 32.3043C88.0544 32.3099 88.0637 32.3173 88.0711 32.3229C88.246 32.455 88.3985 32.5963 88.5157 32.7637C88.6552 32.9553 88.75 33.1804 88.7761 33.4389C88.817 33.8723 88.8337 34.3001 88.8672 34.739C88.9769 36.3814 90.0464 53.6903 90.2287 54.637C90.3701 55.3773 91.1736 55.2712 91.1978 54.5403C91.2257 53.8111 91.0992 53.043 91.0471 52.3157C90.9745 51.3058 90.6565 47.928 90.8462 47.318C91.3837 45.6514 94.0454 45.1455 95.4292 45.9453C96.3313 46.4605 96.7851 47.4259 96.8502 48.4358L97.0474 51.2928C97.0939 51.9977 97.0567 52.7789 97.1962 53.4726C97.3338 54.1255 97.756 54.1087 98.2229 53.7832C98.6488 53.4856 98.6395 50.7496 98.5763 49.855C98.5 48.7744 98.6506 47.7384 99.4542 46.9274C100.552 45.8151 102.266 45.7891 103.554 46.6001C104.491 47.1859 104.632 48.0415 104.699 49.0384C104.766 50.0317 104.779 53.8149 105.609 53.8037C105.973 53.8056 106.009 52.5538 106.012 52.2041C106.014 50.7385 107.171 49.4793 108.635 49.3863C109.81 49.3119 110.906 49.987 111.537 50.9542C111.531 50.9487 111.533 50.9449 111.533 50.9449C111.55 50.9579 111.563 50.9747 111.579 51.0138C111.591 51.0268 111.602 51.0435 111.607 51.064C111.617 51.0696 111.615 51.0751 111.624 51.0807L111.622 51.09C111.858 51.8712 112.385 61.4221 112.653 65.3653L112.958 69.7697C113.084 71.6743 112.258 73.6403 111.354 75.2827C111.122 75.6974 110.253 79.4434 110.183 79.8973C110.156 80.0609 110.331 82.7207 110.454 84.5881C110.508 85.3656 110.547 86.0072 110.567 86.2751C110.582 86.5094 110.674 86.7791 110.525 86.887Z" fill="#FDE3AE"/>
<path d="M112.392 84.4571L83.8158 86.4175L84.1989 92.0049L112.776 90.0445L112.392 84.4571Z" fill="white"/>
<path d="M117 105.621L116.688 88.7995L80.8849 91.2547L82.252 107.611L117 105.621Z" fill="#2B2847"/>
<path d="M86.1075 37.6032C84.7013 37.9045 83.3659 36.6006 83.126 34.7035L82.9325 33.1188C82.9176 32.9886 82.9046 32.8472 82.9046 32.717C83.0311 32.5924 83.1706 32.4622 83.3027 32.3562C84.5228 31.3444 86.2414 31.2179 87.6122 32.0233C87.7647 32.1088 87.9117 32.2037 88.0456 32.3041C88.0549 32.3097 88.0642 32.3172 88.0716 32.3227L88.226 33.5894C88.4585 35.4902 87.5024 37.2963 86.1075 37.6032Z" fill="#EFD9C4"/>
</svg>
