<svg width="141" height="59" viewBox="0 0 141 59" fill="none" xmlns="http://www.w3.org/2000/svg">
<path d="M3.5062 44.79H5.25514V33.1376H2.953C1.62251 33.1376 0.517549 34.1645 0.419676 35.4908L0.00974601 41.0255C-0.140608 43.0581 1.4679 44.79 3.5062 44.79Z" fill="black"/>
<path d="M108.092 0.000164032C112.307 0.000164032 116.256 2.05122 118.685 5.49661L118.699 5.51648L136.336 30.681L139.29 34.8923C139.682 35.4483 139.95 36.0866 140.073 36.7448C140.136 37.054 140.165 37.3632 140.165 37.671V48.4526C140.165 51.1306 137.995 53.3008 135.316 53.3008H126.297H26.9386H18.367H16.0025C10.3798 53.3008 5.51032 50.0781 3.1628 45.3732C2.96706 44.9817 2.79117 44.5802 2.62663 44.1689C1.98833 42.5519 1.6394 40.7916 1.6394 38.9377L3.70322 7.15053C3.93443 0.77607 5.22805 -0.0026741 10.855 0.000164032H108.092Z" fill="white"/>
<path d="M18.2932 44.1689H107.897C106.805 45.7646 106.165 47.6937 106.165 49.7731V53.3008H26.9386H20.0251H16.1911C10.0096 53.3008 4.7358 49.5221 2.62659 44.1689H18.2932Z" fill="white"/>
<path d="M68.4875 48.6446C68.4875 49.5127 69.1911 50.2148 70.0578 50.2148H88.8847C89.7528 50.2148 90.4549 49.5127 90.4549 48.6446V5.36671C90.4549 4.49863 89.7528 3.79649 88.8847 3.79649H70.0578C69.1911 3.79649 68.4875 4.49863 68.4875 5.36671V48.6446Z" fill="white"/>
<path d="M89.0591 6.24223V21.9826C89.0591 22.4805 88.6563 22.8848 88.1584 22.8848H70.9982C70.5003 22.8848 70.0961 22.4805 70.0961 21.9826V6.24223C70.0961 5.74436 70.5003 5.34154 70.9982 5.34154H88.1584C88.6563 5.34154 89.0591 5.74436 89.0591 6.24223Z" fill="#A6C6D8"/>
<path d="M93.2847 48.6446C93.2847 49.5127 93.9882 50.2148 94.8549 50.2148H98.4719C100.068 50.2148 101.383 49.056 101.695 47.4929C102.778 42.0617 107.045 37.7794 112.466 36.6702C114.112 36.3326 115.252 34.8177 115.252 33.1369V5.84471C115.252 4.71279 114.336 3.79649 113.204 3.79649H95.3329C94.2024 3.79649 93.2847 4.71279 93.2847 5.84471V48.6446Z" fill="white"/>
<path d="M95.903 5.34241H112.734C113.345 5.34241 113.843 5.83884 113.843 6.4516V24.0487C113.843 24.7168 113.256 25.2331 112.594 25.148L95.764 23.009C95.2094 22.9381 94.7952 22.4672 94.7952 21.9083V6.4516C94.7952 5.83884 95.2916 5.34241 95.903 5.34241Z" fill="#A6C6D8"/>
<path d="M117.595 6.97502L131.313 26.5551C131.561 26.9097 131.271 27.3906 130.841 27.3367L117.123 25.592C116.875 25.5608 116.688 25.348 116.688 25.097V7.26155C116.688 6.7736 117.316 6.57502 117.595 6.97502Z" fill="#A6C6D8"/>
<path d="M117.574 8.5006V24.7502L125.094 25.7048L130.076 26.3389L117.574 8.5006Z" fill="#A6C6D8"/>
<path d="M122.46 30.0723L122.734 30.0013C123.007 29.8482 123.103 29.5063 122.951 29.234L119.631 23.2992C119.479 23.0269 119.133 22.9304 118.863 23.0822C118.592 23.234 118.496 23.5773 118.648 23.8496L121.968 29.7843C122.072 29.9687 122.263 30.0723 122.46 30.0723Z" fill="#3C3C3B"/>
<path d="M118.988 18.1037C120.067 18.3547 120.734 20.576 120.483 23.2186C120.232 25.8597 119.16 27.9164 118.053 27.959L118.988 18.1037Z" fill="white"/>
<path d="M125.514 49.6356C125.514 50.9235 125.287 52.1589 124.876 53.3008H135.317C137.994 53.3008 140.165 51.1292 140.165 48.4526V37.671C140.165 37.3632 140.135 37.054 140.073 36.7448H138.622C137.86 36.7448 137.087 36.8072 136.335 36.9207C133.526 37.332 130.857 38.5164 128.655 40.3391L124.042 44.1689C124.979 45.7746 125.514 47.6483 125.514 49.6356Z" fill="white"/>
<path d="M136.842 31.8817V39.6859C136.842 40.9781 137.89 42.0264 139.184 42.0264H139.875C140.316 42.0264 140.673 41.6689 140.673 41.2292V37.6704C140.673 37.3626 140.642 37.0533 140.58 36.7441C140.456 36.086 140.188 35.4476 139.798 34.8916L137.533 31.6633C137.32 31.3597 136.842 31.5101 136.842 31.8817Z" fill="black"/>
<path d="M136.336 43.3542V44.0449H140.165V43.3542H136.336Z" fill="#1D1715"/>
<path d="M136.336 44.6737V45.373H140.165V44.6737H136.336Z" fill="#1D1715"/>
<path d="M136.336 46.002V46.6914H140.165V46.002H136.336Z" fill="#1D1715"/>
<path d="M136.336 47.3288V48.0195H140.165V47.3288H136.336Z" fill="#1D1715"/>
<path d="M107.897 44.1689C109.687 41.5519 112.694 39.8341 116.103 39.8341H116.304C119.714 39.8341 122.72 41.5519 124.51 44.1689C125.602 45.7646 126.242 47.6937 126.242 49.7731V53.3008H106.165V49.7731C106.165 47.6937 106.805 45.7646 107.897 44.1689Z" fill="#3C3C3B"/>
<path d="M23.092 44.1689C24.8821 41.5519 27.8877 39.8341 31.2976 39.8341H31.499C34.9076 39.8341 37.9147 41.5519 39.7047 44.1689C40.7955 45.7646 41.4366 47.6937 41.4366 49.7731V53.3008H21.3586V49.7731C21.3586 47.6937 21.9998 45.7646 23.092 44.1689Z" fill="#3C3C3B"/>
<path d="M6.87767 24.2607H63.5542C64.4662 24.2607 65.2038 23.5218 65.2038 22.6111V5.44661C65.2038 4.53597 64.4662 3.79695 63.5542 3.79695H8.15284C7.24079 3.79695 6.50178 4.53597 6.50178 5.44661L5.22803 22.6111C5.22803 23.5218 5.96703 24.2607 6.87767 24.2607Z" fill="#A6C6D8"/>
<path d="M7.68335 21.8682L8.73158 7.73626C8.79682 6.86392 9.52306 6.19017 10.3968 6.19017H62.8095L13.4621 8.18308C12.1145 8.2384 10.9614 9.16889 10.6238 10.4753L7.68335 21.8682Z" fill="white"/>
<path d="M95.2378 25.9033C95.2378 26.3161 96.3484 26.6494 97.7201 26.6494C99.0917 26.6494 100.204 26.3161 100.204 25.9033C100.204 25.4905 99.0917 25.1572 97.7201 25.1572C96.3484 25.1572 95.2378 25.4905 95.2378 25.9033Z" fill="#DAD1D1"/>
<path d="M84.1982 25.9033C84.1982 26.3161 85.3103 26.6494 86.6819 26.6494C88.0536 26.6494 89.1656 26.3161 89.1656 25.9033C89.1656 25.4905 88.0536 25.1572 86.6819 25.1572C85.3103 25.1572 84.1982 25.4905 84.1982 25.9033Z" fill="#DAD1D1"/>
<path fill-rule="evenodd" clip-rule="evenodd" d="M119.702 50.2147C119.702 52.1466 118.139 53.7168 116.201 53.7168C114.269 53.7168 112.702 52.1466 112.702 50.2147C112.702 48.2799 114.269 46.7154 116.201 46.7154C118.139 46.7154 119.702 48.2799 119.702 50.2147Z" fill="white"/>
<path d="M110.232 50.2156C110.232 46.9234 112.903 44.2525 116.204 44.2525C119.496 44.2525 122.168 46.9234 122.168 50.2156C122.168 53.5078 119.496 56.1802 116.204 56.1802C112.903 56.1802 110.232 53.5078 110.232 50.2156ZM107.419 50.2156C107.419 55.0709 111.348 59 116.204 59C119.131 59 121.721 57.5688 123.317 55.3688C124.368 53.922 124.988 52.1348 124.988 50.2156C124.988 48.6199 124.558 47.1135 123.805 45.8242C122.292 43.193 119.455 41.4313 116.204 41.4313C111.348 41.4313 107.419 45.3603 107.419 50.2156Z" fill="#1D1715"/>
<path d="M120.094 49.5016C119.989 48.9272 119.761 48.3952 119.438 47.9357L120.619 46.7527C121.229 47.53 121.64 48.4747 121.771 49.5016H120.094ZM119.455 52.4676C119.778 52.0023 120.004 51.4662 120.103 50.8846H121.778C121.655 51.9186 121.248 52.8676 120.636 53.6505L119.455 52.4676ZM116.892 54.1115C117.477 54.008 118.015 53.7796 118.48 53.4491L119.666 54.6335C118.88 55.2492 117.931 55.6605 116.892 55.7867V54.1115ZM113.921 53.4491C114.387 53.7796 114.926 54.008 115.51 54.1115V55.7867C114.47 55.6605 113.521 55.2492 112.74 54.6335L113.921 53.4491ZM112.3 50.8846C112.398 51.4662 112.623 52.0023 112.947 52.4676L111.765 53.6505C111.155 52.8676 110.748 51.9186 110.628 50.8846H112.3ZM112.965 47.9357C112.642 48.3952 112.413 48.9272 112.307 49.5016H110.631C110.762 48.4747 111.174 47.53 111.784 46.7527L112.965 47.9357ZM115.51 46.3187C114.94 46.4194 114.409 46.6421 113.947 46.9612L112.765 45.7796C113.544 45.1726 114.482 44.7697 115.51 44.6435V46.3187ZM118.456 46.9612C117.994 46.6421 117.466 46.4194 116.892 46.3187V44.6435C117.921 44.7697 118.859 45.1726 119.636 45.7796L118.456 46.9612ZM118.089 53.0548C117.728 53.2917 117.324 53.4633 116.892 53.5527C116.67 53.5995 116.438 53.6236 116.201 53.6236C115.965 53.6236 115.733 53.5995 115.51 53.5527C115.074 53.4633 114.675 53.2917 114.318 53.0548C113.928 52.7952 113.598 52.4605 113.344 52.0718C113.111 51.7144 112.944 51.313 112.86 50.8846C112.816 50.6662 112.791 50.4449 112.791 50.2151C112.791 49.9711 112.821 49.7314 112.867 49.5016C112.958 49.0761 113.128 48.6789 113.361 48.33C113.621 47.9428 113.954 47.6123 114.344 47.3584C114.696 47.1314 115.089 46.9655 115.51 46.8761C115.733 46.8307 115.965 46.8066 116.201 46.8066C116.438 46.8066 116.67 46.8307 116.892 46.8761C117.314 46.9655 117.706 47.1314 118.059 47.3598C118.448 47.6123 118.782 47.9428 119.04 48.33C119.273 48.6789 119.443 49.0761 119.531 49.5016C119.582 49.7314 119.612 49.9711 119.612 50.2151C119.612 50.4449 119.585 50.6662 119.545 50.8846C119.455 51.313 119.292 51.7144 119.055 52.0718C118.805 52.4605 118.473 52.7952 118.089 53.0548ZM116.201 44.0435C112.791 44.0435 110.028 46.8066 110.028 50.2151C110.028 53.6236 112.791 56.3867 116.201 56.3867C119.612 56.3867 122.375 53.6236 122.375 50.2151C122.375 46.8066 119.612 44.0435 116.201 44.0435Z" fill="#DAD1D1"/>
<path fill-rule="evenodd" clip-rule="evenodd" d="M34.8947 50.2147C34.8947 52.1466 33.333 53.7168 31.3954 53.7168C29.4635 53.7168 27.8961 52.1466 27.8961 50.2147C27.8961 48.2799 29.4635 46.7154 31.3954 46.7154C33.333 46.7154 34.8947 48.2799 34.8947 50.2147Z" fill="white"/>
<path d="M25.4252 50.2156C25.4252 46.9234 28.0976 44.2525 31.3983 44.2525C34.6905 44.2525 37.3614 46.9234 37.3614 50.2156C37.3614 53.5078 34.6905 56.1802 31.3983 56.1802C28.0976 56.1802 25.4252 53.5078 25.4252 50.2156ZM22.6139 50.2156C22.6139 55.0709 26.543 59 31.3983 59C34.3259 59 36.9146 57.5688 38.5117 55.3688C39.5614 53.922 40.1827 52.1348 40.1827 50.2156C40.1827 48.6199 39.7529 47.1135 38.9997 45.8242C37.4862 43.193 34.6493 41.4313 31.3983 41.4313C26.543 41.4313 22.6139 45.3603 22.6139 50.2156Z" fill="#1D1715"/>
<path d="M35.289 49.5016C35.184 48.9272 34.9542 48.3952 34.6308 47.9357L35.8123 46.7527C36.4237 47.53 36.835 48.4747 36.9655 49.5016H35.289ZM34.6492 52.4676C34.9726 52.0023 35.1982 51.4662 35.296 50.8846H36.9726C36.8492 51.9186 36.4421 52.8676 35.8308 53.6505L34.6492 52.4676ZM32.0861 54.1115C32.6719 54.008 33.2095 53.7796 33.6748 53.4491L34.8606 54.6335C34.0748 55.2492 33.1258 55.6605 32.0861 55.7867V54.1115ZM29.1159 53.4491C29.5812 53.7796 30.1202 54.008 30.7046 54.1115V55.7867C29.6648 55.6605 28.7159 55.2492 27.9344 54.6335L29.1159 53.4491ZM27.4946 50.8846C27.5925 51.4662 27.818 52.0023 28.1414 52.4676L26.9599 53.6505C26.3485 52.8676 25.9415 51.9186 25.8223 50.8846H27.4946ZM28.1599 47.9357C27.8365 48.3952 27.6067 48.9272 27.5017 49.5016H25.8251C25.957 48.4747 26.367 47.53 26.9783 46.7527L28.1599 47.9357ZM30.7046 46.3187C30.1343 46.4194 29.6024 46.6421 29.1414 46.9612L27.9599 45.7796C28.7372 45.1726 29.6762 44.7697 30.7046 44.6435V46.3187ZM33.6492 46.9612C33.1882 46.6421 32.6606 46.4194 32.0861 46.3187V44.6435C33.1159 44.7697 34.0535 45.1726 34.8308 45.7796L33.6492 46.9612ZM33.2819 53.0548C32.923 53.2917 32.5187 53.4633 32.0861 53.5527C31.8648 53.5995 31.6322 53.6236 31.3953 53.6236C31.1599 53.6236 30.9272 53.5995 30.7046 53.5527C30.2691 53.4633 29.8691 53.2917 29.5117 53.0548C29.123 52.7952 28.7925 52.4605 28.5386 52.0718C28.3046 51.7144 28.1372 51.313 28.0549 50.8846C28.011 50.6662 27.9854 50.4449 27.9854 50.2151C27.9854 49.9711 28.0138 49.7314 28.0606 49.5016C28.1528 49.0761 28.323 48.6789 28.5556 48.33C28.8138 47.9428 29.1485 47.6123 29.5372 47.3584C29.8904 47.1314 30.2833 46.9655 30.7046 46.8761C30.9272 46.8307 31.1599 46.8066 31.3953 46.8066C31.6322 46.8066 31.8648 46.8307 32.0861 46.8761C32.5074 46.9655 32.9003 47.1314 33.2535 47.3598C33.6421 47.6123 33.9769 47.9428 34.235 48.33C34.4677 48.6789 34.6379 49.0761 34.7258 49.5016C34.7769 49.7314 34.8053 49.9711 34.8053 50.2151C34.8053 50.4449 34.7797 50.6662 34.74 50.8846C34.6492 51.313 34.4861 51.7144 34.2492 52.0718C33.9982 52.4605 33.6677 52.7952 33.2819 53.0548ZM31.3953 44.0435C27.9854 44.0435 25.2223 46.8066 25.2223 50.2151C25.2223 53.6236 27.9854 56.3867 31.3953 56.3867C34.8053 56.3867 37.5684 53.6236 37.5684 50.2151C37.5684 46.8066 34.8053 44.0435 31.3953 44.0435Z" fill="#DAD1D1"/>
<path d="M86.6818 21.9922H78.635L70.9967 9.95251V6.22769L76.7542 6.23476H76.7598L86.6818 21.9922Z" fill="white"/>
<path d="M88.1585 21.9922H87.6663L77.7812 6.23476H80.4139L88.1585 18.6291V21.9922Z" fill="white"/>
<path d="M112.734 24.2695L105.305 23.3206H105.299L95.6848 8.22131V6.44827L95.9047 6.22844H102.546L112.954 22.6809V24.0497C112.954 24.1802 112.842 24.2695 112.734 24.2695Z" fill="white"/>
<path d="M112.954 21.1094L103.567 6.22856H106.194L112.954 16.9746V21.1094Z" fill="white"/>
<path d="M130.076 26.3389L125.094 25.7048L117.574 13.8254V8.5006L130.076 26.3389Z" fill="white"/>
</svg>
